<svg width="690" height="736" viewBox="0 0 690 736" fill="none" xmlns="http://www.w3.org/2000/svg">
<path d="M662.253 586.577H613.5V586.945H662.253V586.577Z" fill="#EBEBEB"/>
<path d="M487.556 590.581H474.764V590.949H487.556V590.581Z" fill="#EBEBEB"/>
<path d="M612.028 572.917H583.78V573.285H612.028V572.917Z" fill="#EBEBEB"/>
<path d="M140.797 575.39H77.2211V575.758H140.797V575.39Z" fill="#EBEBEB"/>
<path d="M163.23 575.39H153.912V575.758H163.23V575.39Z" fill="#EBEBEB"/>
<path d="M331.421 581.602H193.524V581.97H331.421V581.602Z" fill="#EBEBEB"/>
<path d="M350.925 497.242H66.6816C64.4524 497.242 62.3146 496.356 60.7383 494.78C59.162 493.204 58.2765 491.066 58.2765 488.837V89.2915C58.2959 87.0751 59.19 84.9561 60.7642 83.3957C62.3383 81.8353 64.4651 80.9599 66.6816 80.96H350.925C352.029 80.96 353.122 81.1774 354.141 81.5998C355.161 82.0222 356.088 82.6413 356.868 83.4218C357.649 84.2023 358.268 85.1289 358.69 86.1486C359.112 87.1684 359.33 88.2613 359.33 89.3651V488.837C359.33 489.94 359.112 491.033 358.69 492.053C358.268 493.073 357.649 493.999 356.868 494.78C356.088 495.56 355.161 496.179 354.141 496.602C353.122 497.024 352.029 497.242 350.925 497.242ZM66.6816 81.2544C64.5512 81.2583 62.5092 82.1063 61.0028 83.6127C59.4964 85.1191 58.6484 87.1611 58.6445 89.2915V488.837C58.6484 490.967 59.4964 493.009 61.0028 494.515C62.5092 496.022 64.5512 496.87 66.6816 496.874H350.925C353.055 496.87 355.097 496.022 356.604 494.515C358.11 493.009 358.958 490.967 358.962 488.837V89.2915C358.958 87.1611 358.11 85.1191 356.604 83.6127C355.097 82.1063 353.055 81.2583 350.925 81.2544H66.6816Z" fill="#EBEBEB"/>
<path d="M669.318 497.242H385.075C382.846 497.242 380.708 496.356 379.132 494.78C377.556 493.204 376.67 491.066 376.67 488.837V89.2915C376.689 87.0751 377.584 84.9561 379.158 83.3957C380.732 81.8353 382.859 80.9599 385.075 80.96H669.318C671.548 80.96 673.685 81.8455 675.262 83.4218C676.838 84.9981 677.723 87.1359 677.723 89.3651V488.837C677.723 491.066 676.838 493.204 675.262 494.78C673.685 496.356 671.548 497.242 669.318 497.242ZM385.075 81.2544C382.945 81.2583 380.903 82.1063 379.396 83.6127C377.89 85.1191 377.042 87.1611 377.038 89.2915V488.837C377.042 490.967 377.89 493.009 379.396 494.515C380.903 496.022 382.945 496.87 385.075 496.874H669.318C671.449 496.87 673.491 496.022 674.997 494.515C676.504 493.009 677.352 490.967 677.355 488.837V89.2915C677.352 87.1611 676.504 85.1191 674.997 83.6127C673.491 82.1063 671.449 81.2583 669.318 81.2544H385.075Z" fill="#EBEBEB"/>
<path d="M736 562.893H0V563.261H736V562.893Z" fill="#EBEBEB"/>
<path d="M184.28 547.496L196.983 514.42H195.025L181.439 547.496H184.28Z" fill="#E0E0E0"/>
<path d="M189.108 547.672L205.005 523.87L203.46 523.517L186.87 547.157L189.108 547.672Z" fill="#E0E0E0"/>
<path d="M128.844 547.407L116.141 514.331H118.099L131.7 547.407H128.844Z" fill="#E0E0E0"/>
<path d="M124.016 547.584L108.118 523.782L109.664 523.428L126.253 547.069L124.016 547.584Z" fill="#E0E0E0"/>
<path d="M159.02 543.786H156.238L156.989 506.206H158.269L159.02 543.786Z" fill="#E0E0E0"/>
<path d="M129.359 547.407L130.022 548.879H131.906L131.302 547.407H129.359Z" fill="#E0E0E0"/>
<path d="M183.794 547.407L183.146 548.879H181.247L181.851 547.407H183.794Z" fill="#E0E0E0"/>
<path d="M124.531 547.496L125.429 549.174H127.284L125.679 547.201L124.531 547.496Z" fill="#E0E0E0"/>
<path d="M188.651 547.496L187.754 549.174H185.899L187.503 547.201L188.651 547.496Z" fill="#E0E0E0"/>
<path d="M156.635 543.786V546.804H158.623V543.786H156.635Z" fill="#E0E0E0"/>
<path d="M133.952 557.535H126.092V562.437H133.952V557.535Z" fill="#E0E0E0"/>
<path d="M187.268 557.535H179.407V562.437H187.268V557.535Z" fill="#E0E0E0"/>
<path d="M190.021 559.699L172.945 561.553C162.109 562.731 151.177 562.731 140.341 561.553L123.251 559.699V549.056L137.132 547.26C150.084 545.567 163.202 545.567 176.154 547.26L190.021 549.056V559.699Z" fill="#EBEBEB"/>
<path d="M130.007 551.529C129.382 551.532 128.773 551.72 128.254 552.069C127.736 552.417 127.333 552.912 127.095 553.49C126.857 554.067 126.796 554.702 126.919 555.315C127.041 555.927 127.342 556.49 127.784 556.932C128.226 557.373 128.788 557.674 129.401 557.797C130.013 557.92 130.648 557.858 131.226 557.621C131.804 557.383 132.298 556.979 132.647 556.461C132.996 555.943 133.184 555.333 133.187 554.709C133.189 554.29 133.108 553.876 132.949 553.49C132.789 553.103 132.555 552.752 132.26 552.456C131.964 552.16 131.613 551.926 131.226 551.767C130.84 551.608 130.425 551.527 130.007 551.529ZM130.007 556.607C129.507 556.607 129.028 556.409 128.675 556.056C128.321 555.702 128.123 555.223 128.123 554.723C128.123 554.224 128.321 553.744 128.675 553.391C129.028 553.038 129.507 552.839 130.007 552.839C130.507 552.839 130.986 553.038 131.339 553.391C131.693 553.744 131.891 554.224 131.891 554.723C131.891 555.223 131.693 555.702 131.339 556.056C130.986 556.409 130.507 556.607 130.007 556.607Z" fill="white"/>
<path d="M147.936 554.723C147.936 554.921 147.877 555.115 147.767 555.279C147.657 555.444 147.501 555.572 147.318 555.648C147.135 555.724 146.934 555.744 146.74 555.705C146.546 555.666 146.367 555.571 146.227 555.431C146.087 555.291 145.992 555.113 145.953 554.918C145.915 554.724 145.935 554.523 146.01 554.34C146.086 554.157 146.214 554.001 146.379 553.891C146.544 553.781 146.737 553.722 146.935 553.722C147.201 553.722 147.455 553.828 147.643 554.015C147.831 554.203 147.936 554.458 147.936 554.723Z" fill="white"/>
<path d="M151.498 554.723C151.498 554.921 151.44 555.115 151.33 555.279C151.22 555.444 151.063 555.572 150.88 555.648C150.697 555.724 150.496 555.744 150.302 555.705C150.108 555.666 149.93 555.571 149.79 555.431C149.65 555.291 149.554 555.113 149.516 554.918C149.477 554.724 149.497 554.523 149.573 554.34C149.648 554.157 149.777 554.001 149.941 553.891C150.106 553.781 150.299 553.722 150.497 553.722C150.763 553.722 151.017 553.828 151.205 554.015C151.393 554.203 151.498 554.458 151.498 554.723Z" fill="white"/>
<path d="M155.061 554.723C155.061 554.989 154.955 555.243 154.767 555.431C154.58 555.619 154.325 555.724 154.06 555.724C153.794 555.724 153.539 555.619 153.352 555.431C153.164 555.243 153.059 554.989 153.059 554.723C153.059 554.458 153.164 554.203 153.352 554.015C153.539 553.828 153.794 553.722 154.06 553.722C154.325 553.722 154.58 553.828 154.767 554.015C154.955 554.203 155.061 554.458 155.061 554.723Z" fill="white"/>
<path d="M158.623 554.723C158.623 554.989 158.517 555.243 158.329 555.431C158.142 555.619 157.887 555.724 157.622 555.724C157.356 555.724 157.102 555.619 156.914 555.431C156.726 555.243 156.621 554.989 156.621 554.723C156.621 554.458 156.726 554.203 156.914 554.015C157.102 553.828 157.356 553.722 157.622 553.722C157.887 553.722 158.142 553.828 158.329 554.015C158.517 554.203 158.623 554.458 158.623 554.723Z" fill="white"/>
<path d="M162.2 554.723C162.2 554.921 162.141 555.115 162.031 555.279C161.921 555.444 161.765 555.572 161.582 555.648C161.399 555.724 161.198 555.744 161.003 555.705C160.809 555.666 160.631 555.571 160.491 555.431C160.351 555.291 160.256 555.113 160.217 554.918C160.178 554.724 160.198 554.523 160.274 554.34C160.35 554.157 160.478 554.001 160.643 553.891C160.807 553.781 161.001 553.722 161.199 553.722C161.464 553.722 161.719 553.828 161.906 554.015C162.094 554.203 162.2 554.458 162.2 554.723Z" fill="white"/>
<path d="M165.762 554.723C165.762 554.921 165.703 555.115 165.593 555.279C165.483 555.444 165.327 555.572 165.144 555.648C164.961 555.724 164.76 555.744 164.566 555.705C164.372 555.666 164.193 555.571 164.053 555.431C163.913 555.291 163.818 555.113 163.779 554.919C163.741 554.724 163.76 554.523 163.836 554.34C163.912 554.157 164.04 554.001 164.205 553.891C164.369 553.781 164.563 553.722 164.761 553.722C164.893 553.72 165.024 553.745 165.146 553.794C165.269 553.844 165.38 553.918 165.473 554.011C165.567 554.104 165.64 554.216 165.69 554.338C165.739 554.46 165.764 554.591 165.762 554.723Z" fill="white"/>
<path d="M169.28 554.723C169.28 554.989 169.175 555.243 168.987 555.431C168.799 555.619 168.545 555.724 168.279 555.724C168.014 555.724 167.759 555.619 167.571 555.431C167.384 555.243 167.278 554.989 167.278 554.723C167.278 554.458 167.384 554.203 167.571 554.015C167.759 553.828 168.014 553.722 168.279 553.722C168.545 553.722 168.799 553.828 168.987 554.015C169.175 554.203 169.28 554.458 169.28 554.723Z" fill="white"/>
<path d="M589.286 559.198L579.203 536.868H555.651L559.272 557.785C559.319 558.056 559.307 558.333 559.235 558.599C559.164 558.864 559.035 559.11 558.858 559.321C558.682 559.531 558.461 559.7 558.212 559.816C557.963 559.933 557.692 559.993 557.417 559.993H547.113C546.981 559.991 546.85 560.016 546.728 560.065C546.605 560.115 546.494 560.188 546.401 560.282C546.308 560.375 546.234 560.486 546.184 560.609C546.135 560.731 546.11 560.862 546.112 560.994V562.098C546.11 562.23 546.135 562.361 546.184 562.483C546.234 562.606 546.308 562.717 546.401 562.81C546.494 562.904 546.605 562.977 546.728 563.027C546.85 563.076 546.981 563.101 547.113 563.099H588.594C588.88 563.095 589.154 562.979 589.355 562.775C589.556 562.571 589.669 562.296 589.669 562.01V560.832C589.657 560.267 589.527 559.71 589.286 559.198Z" fill="#F5F5F5"/>
<path d="M590.611 559.198L580.527 536.868H579.203L589.286 559.198C589.521 559.721 589.641 560.288 589.639 560.861V562.01C589.639 562.296 589.526 562.571 589.325 562.775C589.124 562.979 588.851 563.095 588.565 563.099H589.889C590.178 563.099 590.455 562.984 590.66 562.78C590.864 562.576 590.979 562.299 590.979 562.01V560.832C590.979 560.267 590.853 559.709 590.611 559.198Z" fill="#E0E0E0"/>
<path d="M579.203 536.883H555.636L556.563 542.211H581.602L579.203 536.883Z" fill="#E0E0E0"/>
<path d="M615.296 539.223H514.773C514.302 539.232 513.834 539.141 513.401 538.955C512.967 538.768 512.579 538.492 512.261 538.143C511.944 537.795 511.704 537.383 511.558 536.934C511.413 536.486 511.365 536.012 511.417 535.543L517.776 462.915C517.877 461.92 518.338 460.996 519.073 460.318C519.808 459.64 520.766 459.255 521.765 459.235H622.288C622.76 459.225 623.227 459.317 623.661 459.503C624.094 459.689 624.482 459.966 624.8 460.314C625.118 460.662 625.357 461.075 625.503 461.523C625.649 461.972 625.697 462.446 625.644 462.915L619.285 535.543C619.185 536.538 618.723 537.461 617.988 538.139C617.254 538.817 616.296 539.203 615.296 539.223Z" fill="#E6E6E6"/>
<path d="M512.109 527.683L511.417 535.543C511.365 536.012 511.413 536.486 511.558 536.934C511.704 537.383 511.944 537.795 512.261 538.144C512.579 538.492 512.967 538.768 513.401 538.955C513.834 539.141 514.302 539.232 514.773 539.223H615.296C616.298 539.207 617.26 538.823 617.998 538.144C618.736 537.466 619.199 536.54 619.3 535.543L619.992 527.683H512.109Z" fill="#F5F5F5"/>
<path d="M616.429 525.504H516.039C515.784 525.508 515.53 525.457 515.296 525.355C515.062 525.253 514.852 525.102 514.68 524.913C514.509 524.723 514.38 524.5 514.302 524.256C514.224 524.013 514.199 523.756 514.228 523.502L519.483 463.474C519.534 462.934 519.784 462.432 520.184 462.064C520.583 461.697 521.105 461.492 521.647 461.487H622.023C622.278 461.481 622.532 461.53 622.767 461.63C623.002 461.73 623.213 461.879 623.385 462.067C623.558 462.255 623.689 462.478 623.769 462.721C623.848 462.963 623.876 463.22 623.848 463.474L618.593 523.502C618.536 524.041 618.286 524.542 617.888 524.91C617.49 525.278 616.971 525.489 616.429 525.504Z" fill="#E0E0E0"/>
<path d="M624.511 459.264H622.288C622.759 459.255 623.227 459.346 623.661 459.532C624.094 459.719 624.482 459.995 624.8 460.344C625.118 460.692 625.357 461.104 625.503 461.553C625.648 462.001 625.697 462.475 625.644 462.944L619.285 535.572C619.184 536.57 618.721 537.495 617.983 538.174C617.245 538.852 616.284 539.236 615.281 539.252H617.504C618.506 539.236 619.468 538.852 620.206 538.174C620.944 537.495 621.407 536.57 621.508 535.572L627.867 462.944C627.919 462.475 627.871 462.001 627.726 461.553C627.58 461.104 627.34 460.692 627.023 460.344C626.705 459.995 626.316 459.719 625.883 459.532C625.45 459.346 624.982 459.255 624.511 459.264Z" fill="#E0E0E0"/>
<path d="M582.47 560.994V562.054C582.47 562.331 582.36 562.597 582.164 562.793C581.968 562.989 581.702 563.099 581.425 563.099H547.084C546.952 563.101 546.821 563.076 546.698 563.027C546.576 562.977 546.465 562.903 546.371 562.81C546.278 562.717 546.204 562.606 546.155 562.483C546.105 562.361 546.081 562.23 546.083 562.098V560.994C546.081 560.862 546.105 560.731 546.155 560.608C546.204 560.486 546.278 560.375 546.371 560.282C546.465 560.188 546.576 560.115 546.698 560.065C546.821 560.015 546.952 559.991 547.084 559.993H557.388C557.515 560.007 557.643 560.007 557.77 559.993H581.44C581.707 559.996 581.963 560.102 582.154 560.288C582.346 560.474 582.459 560.727 582.47 560.994Z" fill="#FAFAFA"/>
<path d="M589.536 559.949H557.785C558.198 559.856 558.568 559.627 558.835 559.299C559.102 558.97 559.251 558.562 559.257 558.138H588.697L589.536 559.949Z" fill="#E0E0E0"/>
<g opacity="0.3">
<path d="M584.693 524.694H588.564L601.974 461.59L602.004 461.457H598.147L598.103 461.59L584.693 524.694Z" fill="white"/>
<path d="M566.293 524.694H580.792L594.202 461.59L594.232 461.457H579.732L579.703 461.59L566.293 524.694Z" fill="white"/>
</g>
<path d="M520.735 556.593H561.671V563.246H479.798V560.523L520.735 556.593Z" fill="#F0F0F0"/>
<path d="M520.735 563.246H561.671V556.593L520.735 560.523V563.246Z" fill="#E0E0E0"/>
<path d="M621.316 294.135H592.833C583.882 294.135 576.626 301.391 576.626 310.342V338.825C576.626 347.776 583.882 355.032 592.833 355.032H621.316C630.267 355.032 637.523 347.776 637.523 338.825V310.342C637.523 301.391 630.267 294.135 621.316 294.135Z" fill="#E0E0E0"/>
<path fill-rule="evenodd" clip-rule="evenodd" d="M596.263 334.453C595.728 334.294 595.239 334.01 594.837 333.623C594.435 333.236 594.131 332.759 593.952 332.23C592.907 329.492 592.48 318.084 594.364 315.788C594.974 315.051 595.843 314.577 596.793 314.463C601.96 313.904 617.916 313.978 619.756 314.655C620.271 314.822 620.741 315.103 621.131 315.478C621.521 315.853 621.821 316.311 622.008 316.819C623.127 319.645 623.289 329.949 622.008 332.657C621.675 333.372 621.11 333.954 620.404 334.306C618.637 335.307 598.81 335.292 596.263 334.453ZM601.783 331.862L615.546 324.694L601.606 317.466C601.606 322.265 601.709 327.049 601.783 331.862Z" fill="white"/>
<path d="M159.712 292.913H131.199C122.232 292.913 114.963 300.182 114.963 309.149V337.662C114.963 346.629 122.232 353.898 131.199 353.898H159.712C168.679 353.898 175.948 346.629 175.948 337.662V309.149C175.948 300.182 168.679 292.913 159.712 292.913Z" fill="#E0E0E0"/>
<path d="M129.036 305.322H127.505V306.853H129.036V305.322Z" fill="white"/>
<path d="M130.566 305.322H129.036V306.853H130.566V305.322Z" fill="white"/>
<path d="M132.097 305.322H130.566V306.853H132.097V305.322Z" fill="white"/>
<path d="M129.036 306.853H127.505V308.384H129.036V306.853Z" fill="white"/>
<path d="M129.036 308.384H127.505V309.915H129.036V308.384Z" fill="white"/>
<path d="M129.036 340.194H127.505V341.725H129.036V340.194Z" fill="white"/>
<path d="M129.036 338.663H127.505V340.194H129.036V338.663Z" fill="white"/>
<path d="M129.036 337.132H127.505V338.663H129.036V337.132Z" fill="white"/>
<path d="M130.566 340.194H129.036V341.725H130.566V340.194Z" fill="white"/>
<path d="M132.097 340.194H130.566V341.725H132.097V340.194Z" fill="white"/>
<path d="M163.539 305.322H162.008V306.853H163.539V305.322Z" fill="white"/>
<path d="M163.539 306.853H162.008V308.384H163.539V306.853Z" fill="white"/>
<path d="M163.539 308.384H162.008V309.915H163.539V308.384Z" fill="white"/>
<path d="M162.008 305.322H160.477V306.853H162.008V305.322Z" fill="white"/>
<path d="M160.477 305.322H158.947V306.853H160.477V305.322Z" fill="white"/>
<path d="M163.466 340.194H161.935V341.725H163.466V340.194Z" fill="white"/>
<path d="M163.466 338.663H161.935V340.194H163.466V338.663Z" fill="white"/>
<path d="M163.466 337.132H161.935V338.663H163.466V337.132Z" fill="white"/>
<path d="M161.935 340.194H160.404V341.725H161.935V340.194Z" fill="white"/>
<path d="M160.404 340.194H158.873V341.725H160.404V340.194Z" fill="white"/>
<path d="M132.097 308.84H130.566V310.371H132.097V308.84Z" fill="white"/>
<path d="M133.628 308.84H132.097V310.371H133.628V308.84Z" fill="white"/>
<path d="M135.159 308.84H133.628V310.371H135.159V308.84Z" fill="white"/>
<path d="M136.69 308.84H135.159V310.371H136.69V308.84Z" fill="white"/>
<path d="M138.206 308.84H136.675V310.371H138.206V308.84Z" fill="white"/>
<path d="M139.737 308.84H138.206V310.371H139.737V308.84Z" fill="white"/>
<path d="M141.268 308.84H139.737V310.371H141.268V308.84Z" fill="white"/>
<path d="M132.097 310.371H130.566V311.902H132.097V310.371Z" fill="white"/>
<path d="M141.268 310.371H139.737V311.902H141.268V310.371Z" fill="white"/>
<path d="M132.097 311.902H130.566V313.433H132.097V311.902Z" fill="white"/>
<path d="M135.159 311.902H133.628V313.433H135.159V311.902Z" fill="white"/>
<path d="M136.69 311.902H135.159V313.433H136.69V311.902Z" fill="white"/>
<path d="M138.206 311.902H136.675V313.433H138.206V311.902Z" fill="white"/>
<path d="M141.268 311.902H139.737V313.433H141.268V311.902Z" fill="white"/>
<path d="M132.097 313.433H130.566V314.964H132.097V313.433Z" fill="white"/>
<path d="M135.159 313.433H133.628V314.964H135.159V313.433Z" fill="white"/>
<path d="M136.69 313.433H135.159V314.964H136.69V313.433Z" fill="white"/>
<path d="M138.206 313.433H136.675V314.964H138.206V313.433Z" fill="white"/>
<path d="M141.268 313.433H139.737V314.964H141.268V313.433Z" fill="white"/>
<path d="M132.097 314.964H130.566V316.495H132.097V314.964Z" fill="white"/>
<path d="M135.159 314.964H133.628V316.495H135.159V314.964Z" fill="white"/>
<path d="M136.69 314.964H135.159V316.495H136.69V314.964Z" fill="white"/>
<path d="M138.206 314.964H136.675V316.495H138.206V314.964Z" fill="white"/>
<path d="M141.268 314.964H139.737V316.495H141.268V314.964Z" fill="white"/>
<path d="M132.097 316.495H130.566V318.026H132.097V316.495Z" fill="white"/>
<path d="M141.268 316.495H139.737V318.026H141.268V316.495Z" fill="white"/>
<path d="M132.097 318.026H130.566V319.556H132.097V318.026Z" fill="white"/>
<path d="M133.628 318.026H132.097V319.556H133.628V318.026Z" fill="white"/>
<path d="M135.159 318.026H133.628V319.556H135.159V318.026Z" fill="white"/>
<path d="M136.69 318.026H135.159V319.556H136.69V318.026Z" fill="white"/>
<path d="M138.206 318.026H136.675V319.556H138.206V318.026Z" fill="white"/>
<path d="M139.737 318.026H138.206V319.556H139.737V318.026Z" fill="white"/>
<path d="M141.268 318.026H139.737V319.556H141.268V318.026Z" fill="white"/>
<path d="M151.219 308.84H149.688V310.371H151.219V308.84Z" fill="white"/>
<path d="M152.749 308.84H151.219V310.371H152.749V308.84Z" fill="white"/>
<path d="M154.28 308.84H152.749V310.371H154.28V308.84Z" fill="white"/>
<path d="M155.811 308.84H154.28V310.371H155.811V308.84Z" fill="white"/>
<path d="M157.342 308.84H155.811V310.371H157.342V308.84Z" fill="white"/>
<path d="M158.873 308.84H157.342V310.371H158.873V308.84Z" fill="white"/>
<path d="M160.404 308.84H158.873V310.371H160.404V308.84Z" fill="white"/>
<path d="M151.219 310.371H149.688V311.902H151.219V310.371Z" fill="white"/>
<path d="M160.404 310.371H158.873V311.902H160.404V310.371Z" fill="white"/>
<path d="M151.219 311.902H149.688V313.433H151.219V311.902Z" fill="white"/>
<path d="M154.28 311.902H152.749V313.433H154.28V311.902Z" fill="white"/>
<path d="M155.811 311.902H154.28V313.433H155.811V311.902Z" fill="white"/>
<path d="M157.342 311.902H155.811V313.433H157.342V311.902Z" fill="white"/>
<path d="M160.404 311.902H158.873V313.433H160.404V311.902Z" fill="white"/>
<path d="M151.219 313.433H149.688V314.964H151.219V313.433Z" fill="white"/>
<path d="M154.28 313.433H152.749V314.964H154.28V313.433Z" fill="white"/>
<path d="M155.811 313.433H154.28V314.964H155.811V313.433Z" fill="white"/>
<path d="M157.342 313.433H155.811V314.964H157.342V313.433Z" fill="white"/>
<path d="M160.404 313.433H158.873V314.964H160.404V313.433Z" fill="white"/>
<path d="M151.219 314.964H149.688V316.495H151.219V314.964Z" fill="white"/>
<path d="M154.28 314.964H152.749V316.495H154.28V314.964Z" fill="white"/>
<path d="M155.811 314.964H154.28V316.495H155.811V314.964Z" fill="white"/>
<path d="M157.342 314.964H155.811V316.495H157.342V314.964Z" fill="white"/>
<path d="M160.404 314.964H158.873V316.495H160.404V314.964Z" fill="white"/>
<path d="M151.219 316.495H149.688V318.026H151.219V316.495Z" fill="white"/>
<path d="M160.404 316.495H158.873V318.026H160.404V316.495Z" fill="white"/>
<path d="M151.219 318.026H149.688V319.556H151.219V318.026Z" fill="white"/>
<path d="M152.749 318.026H151.219V319.556H152.749V318.026Z" fill="white"/>
<path d="M154.28 318.026H152.749V319.556H154.28V318.026Z" fill="white"/>
<path d="M155.811 318.026H154.28V319.556H155.811V318.026Z" fill="white"/>
<path d="M157.342 318.026H155.811V319.556H157.342V318.026Z" fill="white"/>
<path d="M158.873 318.026H157.342V319.556H158.873V318.026Z" fill="white"/>
<path d="M160.404 318.026H158.873V319.556H160.404V318.026Z" fill="white"/>
<path d="M158.873 332.569H157.342V334.1H158.873V332.569Z" fill="white"/>
<path d="M158.873 334.085H157.342V335.616H158.873V334.085Z" fill="white"/>
<path d="M158.873 335.616H157.342V337.147H158.873V335.616Z" fill="white"/>
<path d="M157.342 332.569H155.811V334.1H157.342V332.569Z" fill="white"/>
<path d="M157.342 334.085H155.811V335.616H157.342V334.085Z" fill="white"/>
<path d="M157.342 335.616H155.811V337.147H157.342V335.616Z" fill="white"/>
<path d="M155.811 332.569H154.28V334.1H155.811V332.569Z" fill="white"/>
<path d="M154.28 332.569H152.749V334.1H154.28V332.569Z" fill="white"/>
<path d="M152.749 331.038H151.219V332.569H152.749V331.038Z" fill="white"/>
<path d="M152.749 329.507H151.219V331.038H152.749V329.507Z" fill="white"/>
<path d="M152.749 334.085H151.219V335.616H152.749V334.085Z" fill="white"/>
<path d="M152.749 335.616H151.219V337.147H152.749V335.616Z" fill="white"/>
<path d="M132.097 327.976H130.566V329.507H132.097V327.976Z" fill="white"/>
<path d="M133.628 327.976H132.097V329.507H133.628V327.976Z" fill="white"/>
<path d="M135.159 327.976H133.628V329.507H135.159V327.976Z" fill="white"/>
<path d="M136.69 327.976H135.159V329.507H136.69V327.976Z" fill="white"/>
<path d="M138.206 327.976H136.675V329.507H138.206V327.976Z" fill="white"/>
<path d="M139.737 327.976H138.206V329.507H139.737V327.976Z" fill="white"/>
<path d="M141.268 327.976H139.737V329.507H141.268V327.976Z" fill="white"/>
<path d="M132.097 329.507H130.566V331.038H132.097V329.507Z" fill="white"/>
<path d="M141.268 329.507H139.737V331.038H141.268V329.507Z" fill="white"/>
<path d="M132.097 331.038H130.566V332.569H132.097V331.038Z" fill="white"/>
<path d="M135.159 331.038H133.628V332.569H135.159V331.038Z" fill="white"/>
<path d="M136.69 331.038H135.159V332.569H136.69V331.038Z" fill="white"/>
<path d="M138.206 331.038H136.675V332.569H138.206V331.038Z" fill="white"/>
<path d="M141.268 331.038H139.737V332.569H141.268V331.038Z" fill="white"/>
<path d="M132.097 332.569H130.566V334.1H132.097V332.569Z" fill="white"/>
<path d="M135.159 332.569H133.628V334.1H135.159V332.569Z" fill="white"/>
<path d="M136.69 332.569H135.159V334.1H136.69V332.569Z" fill="white"/>
<path d="M138.206 332.569H136.675V334.1H138.206V332.569Z" fill="white"/>
<path d="M141.268 332.569H139.737V334.1H141.268V332.569Z" fill="white"/>
<path d="M132.097 334.085H130.566V335.616H132.097V334.085Z" fill="white"/>
<path d="M135.159 334.085H133.628V335.616H135.159V334.085Z" fill="white"/>
<path d="M136.69 334.085H135.159V335.616H136.69V334.085Z" fill="white"/>
<path d="M138.206 334.085H136.675V335.616H138.206V334.085Z" fill="white"/>
<path d="M141.268 334.085H139.737V335.616H141.268V334.085Z" fill="white"/>
<path d="M132.097 335.616H130.566V337.147H132.097V335.616Z" fill="white"/>
<path d="M141.268 335.616H139.737V337.147H141.268V335.616Z" fill="white"/>
<path d="M132.097 337.147H130.566V338.678H132.097V337.147Z" fill="white"/>
<path d="M133.628 337.147H132.097V338.678H133.628V337.147Z" fill="white"/>
<path d="M135.159 337.147H133.628V338.678H135.159V337.147Z" fill="white"/>
<path d="M136.69 337.147H135.159V338.678H136.69V337.147Z" fill="white"/>
<path d="M138.206 337.147H136.675V338.678H138.206V337.147Z" fill="white"/>
<path d="M139.737 337.147H138.206V338.678H139.737V337.147Z" fill="white"/>
<path d="M141.268 337.147H139.737V338.678H141.268V337.147Z" fill="white"/>
<path d="M377.568 93.5898H349.055C340.088 93.5898 332.819 100.859 332.819 109.826V138.339C332.819 147.306 340.088 154.575 349.055 154.575H377.568C386.535 154.575 393.804 147.306 393.804 138.339V109.826C393.804 100.859 386.535 93.5898 377.568 93.5898Z" fill="#E0E0E0"/>
<path fill-rule="evenodd" clip-rule="evenodd" d="M371.651 124.045C371.653 125.641 371.183 127.203 370.298 128.531C369.414 129.859 368.155 130.896 366.681 131.508C365.207 132.121 363.585 132.283 362.019 131.974C360.454 131.664 359.015 130.897 357.885 129.769C356.756 128.642 355.986 127.204 355.674 125.639C355.361 124.074 355.52 122.451 356.13 120.977C356.74 119.502 357.774 118.241 359.101 117.354C360.428 116.467 361.988 115.994 363.584 115.994C365.72 115.997 367.767 116.847 369.278 118.355C370.79 119.864 371.643 121.91 371.651 124.045Z" fill="white"/>
<path fill-rule="evenodd" clip-rule="evenodd" d="M379.967 112.093H347.392C345.95 112.093 344.567 112.665 343.546 113.683C342.525 114.701 341.949 116.083 341.946 117.524V130.581C341.949 132.023 342.525 133.405 343.546 134.423C344.567 135.441 345.95 136.013 347.392 136.013H380.011C381.452 136.013 382.834 135.441 383.852 134.422C384.871 133.403 385.443 132.022 385.443 130.581V117.524C385.443 116.807 385.301 116.098 385.026 115.436C384.75 114.774 384.346 114.173 383.837 113.668C383.328 113.163 382.724 112.764 382.06 112.494C381.395 112.223 380.684 112.087 379.967 112.093ZM363.584 134.32C361.546 134.32 359.554 133.716 357.859 132.583C356.165 131.451 354.844 129.842 354.064 127.959C353.284 126.076 353.08 124.005 353.478 122.006C353.876 120.007 354.857 118.171 356.298 116.73C357.739 115.289 359.575 114.308 361.574 113.91C363.573 113.512 365.644 113.716 367.527 114.496C369.41 115.276 371.019 116.597 372.151 118.291C373.284 119.986 373.888 121.978 373.888 124.016C373.888 126.749 372.802 129.37 370.87 131.302C368.938 133.234 366.317 134.32 363.584 134.32ZM379.85 117.524H374.506V114.669H379.85V117.524Z" fill="white"/>
<path d="M349.88 109.855H350.645C351.035 109.855 351.41 110.01 351.686 110.286C351.962 110.563 352.117 110.937 352.117 111.327V112.564H348.393V111.327C348.393 111.133 348.431 110.94 348.506 110.761C348.581 110.581 348.691 110.418 348.829 110.281C348.967 110.144 349.131 110.036 349.312 109.963C349.492 109.89 349.685 109.853 349.88 109.855Z" fill="white"/>
<path d="M368 623.701C525.626 623.701 653.406 616.241 653.406 607.038C653.406 597.835 525.626 590.375 368 590.375C210.375 590.375 82.594 597.835 82.594 607.038C82.594 616.241 210.375 623.701 368 623.701Z" fill="#F5F5F5"/>
<path d="M427.984 599.398H427.852C427.661 599.363 427.491 599.253 427.381 599.093C427.271 598.933 427.228 598.736 427.263 598.545C427.263 598.309 431.811 575.832 448.386 563.217C461.03 553.531 474.514 531.48 474.646 531.26C474.696 531.176 474.762 531.103 474.84 531.045C474.919 530.988 475.008 530.946 475.102 530.923C475.197 530.899 475.295 530.895 475.391 530.91C475.487 530.925 475.579 530.959 475.662 531.009C475.828 531.113 475.946 531.277 475.993 531.466C476.04 531.656 476.011 531.856 475.912 532.025C475.765 532.246 462.149 554.532 449.284 564.409C433.092 576.759 428.676 598.692 428.676 598.898C428.629 599.044 428.536 599.171 428.412 599.262C428.287 599.352 428.138 599.399 427.984 599.398Z" fill="#263238"/>
<path d="M446.31 569.944C446.31 569.944 463.386 566.47 457.453 576.877C451.521 587.284 437.891 582.765 437.891 582.765C437.891 582.765 426.247 575.096 432.194 565.807C438.141 556.519 446.31 569.944 446.31 569.944Z" fill="#7164BF"/>
<path opacity="0.1" d="M432.194 565.852C438.082 556.563 446.31 569.944 446.31 569.944C446.31 569.944 447.547 576.627 437.891 582.809C437.891 582.809 426.247 575.14 432.194 565.852Z" fill="black"/>
<path d="M474.632 531.628C474.632 531.628 485.466 521.647 485.716 531.775C485.966 541.902 474.175 544.625 474.175 544.625C474.175 544.625 462.399 544.169 462.635 534.851C462.87 525.533 474.632 531.628 474.632 531.628Z" fill="#7164BF"/>
<path opacity="0.1" d="M462.635 534.851C462.87 525.548 474.632 531.628 474.632 531.628C474.632 531.628 478.444 535.926 474.175 544.625C474.175 544.64 462.399 544.169 462.635 534.851Z" fill="black"/>
<path d="M460.927 550.528C460.927 550.528 465.182 536.426 455.967 540.607C446.752 544.787 449.431 556.593 449.431 556.593C449.431 556.593 454.981 567 463.253 562.731C471.526 558.462 460.927 550.528 460.927 550.528Z" fill="#7164BF"/>
<path opacity="0.1" d="M463.253 562.701C471.526 558.433 460.927 550.499 460.927 550.499C460.927 550.499 455.393 548.924 449.431 556.563C449.431 556.563 454.981 566.97 463.253 562.701Z" fill="black"/>
<path d="M413.868 599.398C413.717 599.396 413.57 599.349 413.447 599.262C413.323 599.176 413.229 599.054 413.176 598.913C413.102 598.707 406.125 579.247 389.212 568.604C371.93 557.711 364.099 544.198 364.026 544.066C363.977 543.982 363.946 543.889 363.933 543.793C363.921 543.697 363.928 543.599 363.953 543.505C363.978 543.412 364.022 543.324 364.081 543.247C364.14 543.17 364.214 543.106 364.298 543.058C364.382 543.009 364.475 542.978 364.571 542.966C364.667 542.953 364.765 542.96 364.858 542.985C364.952 543.01 365.04 543.054 365.117 543.113C365.193 543.172 365.258 543.246 365.306 543.33C365.38 543.462 373.034 556.681 390.006 567.353C407.347 578.275 414.5 598.265 414.559 598.427C414.592 598.517 414.606 598.612 414.602 598.708C414.597 598.803 414.574 598.897 414.532 598.983C414.491 599.069 414.434 599.146 414.362 599.21C414.291 599.274 414.208 599.323 414.118 599.354C414.037 599.383 413.953 599.398 413.868 599.398Z" fill="#263238"/>
<path d="M417.091 599.398C416.995 599.391 416.9 599.364 416.814 599.32C416.727 599.276 416.65 599.216 416.587 599.142C416.524 599.068 416.477 598.982 416.447 598.89C416.417 598.798 416.406 598.7 416.414 598.604C416.414 598.442 417.665 581.587 419.005 565.793C420.344 549.998 427.16 540.886 427.439 540.518C427.563 540.377 427.735 540.289 427.922 540.271C428.108 540.253 428.295 540.306 428.443 540.421C428.591 540.535 428.69 540.702 428.72 540.887C428.749 541.072 428.707 541.261 428.602 541.416C428.529 541.519 421.772 550.366 420.462 565.91C419.137 581.705 417.901 598.545 417.886 598.721C417.879 598.818 417.852 598.912 417.808 598.999C417.764 599.085 417.703 599.162 417.63 599.225C417.556 599.288 417.47 599.336 417.378 599.366C417.285 599.395 417.188 599.407 417.091 599.398Z" fill="#263238"/>
<path d="M421.095 554.252C421.095 554.252 426.07 543.315 413.941 546.156C401.812 548.997 406.022 558.447 406.022 558.447C406.022 558.447 413.985 566.956 424.849 564.012C435.712 561.068 421.095 554.252 421.095 554.252Z" fill="#7164BF"/>
<path opacity="0.1" d="M424.849 564.012C435.712 561.068 421.095 554.252 421.095 554.252C418.43 553.911 415.723 554.107 413.135 554.827C410.546 555.548 408.128 556.778 406.022 558.447C406.022 558.447 413.985 566.956 424.849 564.012Z" fill="black"/>
<path d="M373.726 556.136C373.726 556.136 378.701 545.214 366.572 548.04C354.443 550.867 358.638 560.346 358.638 560.346C358.638 560.346 366.616 568.84 377.48 565.896C388.343 562.952 373.726 556.136 373.726 556.136Z" fill="#7164BF"/>
<path opacity="0.1" d="M377.48 565.896C388.343 562.952 373.726 556.136 373.726 556.136C371.057 555.796 368.348 555.993 365.757 556.716C363.165 557.439 360.745 558.674 358.638 560.346C358.638 560.346 366.616 568.84 377.48 565.896Z" fill="black"/>
<path d="M401.032 579.585C401.032 579.585 403.46 567.809 392.2 573.27C380.939 578.732 387.195 587.034 387.195 587.034C387.195 587.034 396.851 593.555 406.787 588.27C416.723 582.986 401.032 579.585 401.032 579.585Z" fill="#7164BF"/>
<path opacity="0.1" d="M406.846 588.27C416.782 583 401.032 579.585 401.032 579.585C398.355 579.848 395.758 580.642 393.392 581.921C391.026 583.2 388.939 584.938 387.254 587.034C387.254 587.034 396.91 593.555 406.846 588.27Z" fill="black"/>
<path d="M419.829 573.079C419.829 573.079 423.215 565.631 414.942 567.559C406.67 569.487 409.54 575.935 409.54 575.935C409.54 575.935 414.972 581.734 422.376 579.732C429.78 577.731 419.829 573.079 419.829 573.079Z" fill="#7164BF"/>
<path opacity="0.1" d="M422.376 579.732C429.736 577.716 419.829 573.079 419.829 573.079C418.008 572.844 416.158 572.975 414.389 573.465C412.619 573.956 410.965 574.795 409.525 575.935C409.525 575.935 414.972 581.734 422.376 579.732Z" fill="black"/>
<path d="M427.189 540.327C427.189 540.327 422.935 528.948 432.797 532.128C442.66 535.308 439.466 544.993 439.466 544.993C439.466 544.993 433.21 553.604 424.363 550.337C415.516 547.069 427.189 540.327 427.189 540.327Z" fill="#7164BF"/>
<path opacity="0.1" d="M424.363 550.337C415.531 547.054 427.189 540.327 427.189 540.327C427.189 540.327 433.195 538.855 439.466 544.993C439.466 544.993 433.21 553.604 424.363 550.337Z" fill="black"/>
<path d="M365.321 539.4C365.321 539.4 370.164 532.29 362.848 532.82C355.532 533.35 356.106 540.548 356.106 540.548C356.106 540.548 358.962 547.51 365.586 546.745C372.21 545.98 365.321 539.4 365.321 539.4Z" fill="#7164BF"/>
<path opacity="0.1" d="M365.586 546.745C372.21 545.98 365.321 539.385 365.321 539.385C365.321 539.385 361.42 537.398 356.106 540.533C356.106 540.548 358.962 547.584 365.586 546.745Z" fill="black"/>
<path d="M387.018 564.203C387.018 564.203 369.737 561.848 378.775 553.987C387.813 546.127 399.206 554.812 399.206 554.812C399.206 554.812 407.656 565.896 399 572.711C390.345 579.526 387.018 564.203 387.018 564.203Z" fill="#7164BF"/>
<path opacity="0.1" d="M399 572.711C390.33 579.512 387.018 564.203 387.018 564.203C387.018 564.203 388.049 557.476 399.206 554.812C399.206 554.812 407.656 565.896 399 572.711Z" fill="black"/>
<path d="M403.77 615.929H431.649C432.934 615.925 434.177 615.471 435.161 614.645C436.146 613.819 436.809 612.674 437.037 611.41L440.202 593.746H395.203L398.382 611.41C398.61 612.674 399.273 613.819 400.258 614.645C401.242 615.471 402.485 615.925 403.77 615.929Z" fill="#7164BF"/>
<path opacity="0.6" d="M403.77 615.929H431.649C432.934 615.925 434.177 615.471 435.161 614.645C436.146 613.819 436.809 612.674 437.037 611.41L440.202 593.746H395.203L398.382 611.41C398.61 612.674 399.273 613.819 400.258 614.645C401.242 615.471 402.485 615.925 403.77 615.929Z" fill="black"/>
<path d="M437.331 503.542H316.186C313.01 503.589 309.861 502.969 306.94 501.723C304.019 500.476 301.392 498.631 299.23 496.306C297.067 493.98 295.416 491.227 294.384 488.224C293.351 485.221 292.961 482.035 293.237 478.871L313.448 189.329C313.996 182.67 317.004 176.454 321.887 171.893C326.769 167.332 333.175 164.752 339.855 164.658H460.986C464.162 164.611 467.312 165.231 470.234 166.477C473.155 167.723 475.783 169.569 477.947 171.894C480.111 174.218 481.763 176.971 482.797 179.975C483.831 182.978 484.224 186.164 483.949 189.329L463.68 478.871C463.139 485.522 460.141 491.734 455.27 496.295C450.399 500.856 444.004 503.439 437.331 503.542Z" fill="#7164BF"/>
<path opacity="0.6" d="M437.331 503.542H316.186C313.01 503.589 309.861 502.969 306.94 501.723C304.019 500.476 301.392 498.631 299.23 496.306C297.067 493.98 295.416 491.227 294.384 488.224C293.351 485.221 292.961 482.035 293.237 478.871L313.448 189.329C313.996 182.67 317.004 176.454 321.887 171.893C326.769 167.332 333.175 164.752 339.855 164.658H460.986C464.162 164.611 467.312 165.231 470.234 166.477C473.155 167.723 475.783 169.569 477.947 171.894C480.111 174.218 481.763 176.971 482.797 179.975C483.831 182.978 484.224 186.164 483.949 189.329L463.68 478.871C463.139 485.522 460.141 491.734 455.27 496.295C450.399 500.856 444.004 503.439 437.331 503.542Z" fill="white"/>
<path d="M431.046 503.542H309.9C306.725 503.589 303.575 502.969 300.654 501.723C297.734 500.476 295.107 498.631 292.944 496.306C290.781 493.98 289.13 491.227 288.098 488.224C287.066 485.221 286.675 482.035 286.952 478.871L307.162 189.329C307.71 182.672 310.717 176.458 315.596 171.898C320.475 167.337 326.877 164.756 333.555 164.658H454.701C457.876 164.611 461.026 165.231 463.947 166.477C466.867 167.724 469.494 169.569 471.657 171.894C473.82 174.219 475.471 176.972 476.503 179.976C477.535 182.979 477.926 186.165 477.649 189.329L457.439 478.871C456.891 485.527 453.884 491.741 449.005 496.302C444.126 500.863 437.724 503.444 431.046 503.542Z" fill="#7164BF"/>
<path d="M454.303 170.31H422.817C421.795 170.316 420.807 170.675 420.021 171.327C419.234 171.979 418.698 172.884 418.504 173.887L418.313 174.874C417.816 177.314 416.501 179.512 414.584 181.102C412.667 182.693 410.264 183.58 407.773 183.617H377.833C375.45 183.654 373.146 182.762 371.41 181.13C369.673 179.498 368.641 177.254 368.53 174.874V173.887C368.484 172.913 368.06 171.994 367.349 171.326C366.637 170.658 365.693 170.294 364.717 170.31H333.217C328.069 170.382 323.133 172.37 319.374 175.887C315.614 179.404 313.302 184.197 312.888 189.329L292.663 478.871C292.451 481.307 292.752 483.761 293.546 486.074C294.341 488.387 295.611 490.508 297.275 492.3C298.939 494.091 300.961 495.515 303.209 496.477C305.457 497.44 307.882 497.921 310.327 497.889H431.458C436.607 497.818 441.545 495.83 445.306 492.313C449.068 488.797 451.384 484.004 451.801 478.871L472.026 189.329C472.239 186.887 471.936 184.429 471.138 182.112C470.341 179.794 469.065 177.671 467.394 175.878C465.724 174.085 463.695 172.663 461.44 171.704C459.185 170.745 456.754 170.27 454.303 170.31Z" fill="#7164BF"/>
<path opacity="0.6" d="M471.997 189.329L471.57 195.217L451.786 478.871C451.362 484.004 449.043 488.795 445.279 492.311C441.516 495.827 436.578 497.815 431.428 497.889H310.283C307.837 497.923 305.411 497.444 303.162 496.482C300.913 495.52 298.89 494.097 297.226 492.304C295.561 490.512 294.291 488.39 293.497 486.076C292.704 483.762 292.404 481.308 292.619 478.871L312.402 195.202L312.829 189.314C313.249 184.185 315.564 179.396 319.322 175.88C323.08 172.364 328.012 170.374 333.158 170.296H364.658C365.637 170.279 366.583 170.646 367.295 171.317C368.007 171.988 368.429 172.91 368.471 173.887V174.859C368.585 177.238 369.619 179.48 371.355 181.111C373.091 182.743 375.392 183.636 377.774 183.603H407.744C410.235 183.568 412.639 182.682 414.557 181.091C416.474 179.5 417.789 177.301 418.283 174.859L418.475 173.887C418.679 172.885 419.22 171.983 420.007 171.33C420.794 170.677 421.78 170.312 422.802 170.296H454.289C456.739 170.257 459.17 170.734 461.424 171.695C463.679 172.656 465.706 174.08 467.376 175.874C469.045 177.668 470.319 179.793 471.115 182.111C471.911 184.428 472.211 186.887 471.997 189.329Z" fill="white"/>
<g opacity="0.7">
<path d="M386.179 173.519C386.128 174.169 385.835 174.776 385.358 175.22C384.881 175.664 384.255 175.913 383.603 175.919C383.295 175.922 382.989 175.86 382.705 175.739C382.422 175.617 382.166 175.438 381.956 175.212C381.745 174.986 381.584 174.719 381.483 174.428C381.381 174.136 381.341 173.827 381.366 173.519C381.424 172.872 381.719 172.269 382.194 171.826C382.67 171.383 383.292 171.132 383.942 171.12C384.252 171.112 384.56 171.171 384.846 171.291C385.131 171.411 385.388 171.59 385.6 171.817C385.811 172.044 385.972 172.312 386.072 172.606C386.172 172.899 386.208 173.211 386.179 173.519Z" fill="black"/>
<path d="M403.416 171.12H395.158C394.509 171.132 393.886 171.384 393.411 171.826C392.935 172.269 392.64 172.872 392.582 173.519C392.558 173.827 392.598 174.136 392.699 174.428C392.801 174.719 392.962 174.986 393.173 175.212C393.383 175.438 393.638 175.617 393.922 175.739C394.205 175.86 394.511 175.922 394.82 175.919H403.078C403.727 175.907 404.35 175.655 404.825 175.212C405.301 174.769 405.596 174.167 405.654 173.519C405.678 173.212 405.639 172.902 405.537 172.611C405.435 172.32 405.274 172.052 405.064 171.827C404.853 171.601 404.598 171.422 404.314 171.3C404.031 171.178 403.725 171.117 403.416 171.12Z" fill="black"/>
</g>
<path d="M326.416 183.573H328.962L329.139 181.027H326.593L326.416 183.573Z" fill="#7164BF"/>
<path d="M331.686 181.027L331.509 183.573H334.056L334.232 181.027L334.409 178.48H331.862L331.686 181.027Z" fill="#7164BF"/>
<path d="M337.132 175.933L336.955 178.48L336.779 181.027L336.602 183.573H339.149L339.325 181.027L339.502 178.48L339.679 175.933H337.132Z" fill="#7164BF"/>
<path d="M446.678 176.095L446.546 177.965H445.295L445.044 181.704H446.281L446.148 183.573H457.365L457.88 176.095H446.678ZM451.271 181.704H447.488L447.753 177.965H451.477L451.271 181.704Z" fill="#7164BF"/>
<path d="M249.062 584.899L245.574 607.73H256.614L263.871 584.899H249.062Z" fill="#FFC3BD"/>
<path d="M244.175 602.637L258.895 602.298C259.011 602.284 259.128 602.294 259.239 602.328C259.35 602.362 259.453 602.419 259.541 602.495C259.628 602.572 259.699 602.666 259.747 602.771C259.796 602.877 259.822 602.992 259.823 603.108V613.927C259.761 614.531 259.48 615.091 259.032 615.501C258.584 615.911 258.001 616.142 257.394 616.15C252.271 616.15 249.828 615.958 243.336 616.15C236.445 616.127 229.563 615.675 222.728 614.795C217.473 613.898 218.901 608.907 221.256 608.907C231.987 608.525 237.978 606.287 241.864 603.52C242.526 602.995 243.333 602.687 244.175 602.637Z" fill="#263238"/>
<path opacity="0.2" d="M247.664 594.055L249.062 584.899H263.871L260.309 596.307L247.664 594.055Z" fill="black"/>
<path d="M346.229 456.879C346.229 456.879 256.437 457.777 255.068 486.202C253.081 527.079 246.236 589.404 246.236 589.404L263.164 594.055C263.164 594.055 287.305 532.231 288.188 500.333C313.448 495.313 378.363 500.333 385.988 483.758C389.707 475.312 390.71 465.92 388.858 456.879H346.229Z" fill="#7164BF"/>
<path opacity="0.3" d="M346.229 456.879C346.229 456.879 256.437 457.777 255.068 486.202C253.081 527.079 246.236 589.404 246.236 589.404L263.164 594.055C263.164 594.055 287.305 532.231 288.188 500.333C313.448 495.313 378.363 500.333 385.988 483.758C389.707 475.312 390.71 465.92 388.858 456.879H346.229Z" fill="white"/>
<path d="M233.503 582.809L221.418 600.885L228.337 610.821L244.808 592.789L233.503 582.809Z" fill="#FFC3BD"/>
<path opacity="0.2" d="M238.611 599.575L244.808 592.789L234.519 581.322L227.88 591.199L238.611 599.575Z" fill="black"/>
<path d="M222.007 600.002L231.649 607.156C231.758 607.215 231.855 607.294 231.934 607.391C232.012 607.487 232.071 607.598 232.106 607.717C232.142 607.836 232.154 607.961 232.141 608.084C232.128 608.208 232.091 608.327 232.031 608.437L226.423 618.593C226.07 619.11 225.53 619.468 224.916 619.592C224.303 619.716 223.666 619.595 223.14 619.256C218.724 616.312 216.664 614.619 210.938 610.954C207.434 608.701 202.871 606.052 198.013 602.931C193.156 599.811 196.218 595.365 198.514 596.293C208.936 600.385 212.365 599.354 217.194 599.001C218.841 599.078 220.466 599.416 222.007 600.002Z" fill="#263238"/>
<path d="M229.411 587.019L242.659 597.75C242.659 597.75 271.805 566.543 300.892 512.653L300.524 511.991C326.696 509.945 398.618 502.806 407.214 492.281C416.282 481.153 415.649 468.435 412.234 456.879H369.546C369.546 456.879 301.421 466.948 279.18 488.321C262.443 503.188 229.411 587.019 229.411 587.019Z" fill="#7164BF"/>
<g opacity="0.4">
<path d="M229.411 587.019L242.659 597.75C242.659 597.75 271.805 566.543 300.892 512.653L300.524 511.991C326.696 509.945 398.618 502.806 407.214 492.281C416.282 481.153 415.649 468.435 412.234 456.879H369.546C369.546 456.879 301.421 466.948 279.18 488.321C262.443 503.188 229.411 587.019 229.411 587.019Z" fill="white"/>
</g>
<path d="M365.056 360.331L335.469 364.747C318.909 367.22 301.745 358.726 287.511 349.909L280.637 357.092C280.637 357.092 310.798 379.378 325.812 379.437C334.321 379.437 347.627 377.2 357.563 375.242C359.141 374.927 360.626 374.257 361.906 373.282C363.186 372.307 364.227 371.053 364.949 369.615C365.671 368.177 366.056 366.594 366.075 364.985C366.093 363.377 365.745 361.785 365.056 360.331Z" fill="#FF8B7B"/>
<path d="M269.935 336.808C270.745 341.637 271.569 346.479 272.394 351.308C275.146 353.059 277.516 355.429 280.283 357.196C283.209 355.488 285.722 353.156 287.643 350.365C287.143 348.113 286.171 345.949 285.715 343.697C284.861 339.958 280.298 337.515 277.781 334.63C275.529 335.145 272.187 336.278 269.935 336.808Z" fill="#FF8B7B"/>
<path d="M358.815 383.176L336.735 382.588L333.688 361.98C333.688 361.98 346.008 359.551 357.549 357.196C357.961 363.923 358.329 376.479 358.815 383.176Z" fill="#7164BF"/>
<path opacity="0.1" d="M358.815 383.176L336.735 382.588L333.688 361.98C333.688 361.98 346.008 359.551 357.549 357.196C357.961 363.923 358.329 376.479 358.815 383.176Z" fill="black"/>
<path opacity="0.2" d="M336.661 382.588L357.313 378.775L357.416 383.206L336.661 382.588Z" fill="black"/>
<path d="M413.941 459.161C406.051 461.016 390.86 459.529 376.552 458.999C366.602 458.616 353.074 456.879 353.074 456.879C354.148 440.187 353.692 423.45 349.173 393.201C347.024 378.775 357.608 357.078 357.652 357.078C359.3 356.813 361.082 356.577 362.922 356.356C363.952 356.239 364.982 356.15 366.042 356.077C374.62 355.719 383.211 355.861 391.773 356.504C393.377 356.607 395.026 356.754 396.63 356.931C398.235 357.107 399.574 357.269 400.929 357.475L402.827 357.74C403.996 357.923 405.117 358.335 406.125 358.952C407.134 359.57 408.01 360.381 408.704 361.339C409.398 362.296 409.895 363.382 410.167 364.533C410.44 365.684 410.481 366.877 410.291 368.044C410.297 368.078 410.297 368.113 410.291 368.147C409.51 375.021 408.819 381.071 408.451 386.591C408.451 386.768 408.451 386.959 408.451 387.136C407.935 393.274 407.656 398.779 407.611 404.049C407.391 420.521 409.393 434.77 413.941 459.161Z" fill="#7164BF"/>
<path d="M408.524 384.634C408.524 385.267 408.524 385.914 408.436 386.547C408.436 386.724 408.436 386.915 408.436 387.092C407.921 393.23 407.641 398.735 407.597 404.005C403.946 397.057 400.355 387.195 400.59 382.278L408.524 384.634Z" fill="#7164BF"/>
<path opacity="0.2" d="M408.524 384.634C408.524 385.267 408.524 385.914 408.436 386.547C408.429 386.645 408.429 386.744 408.436 386.842C407.921 393.068 407.626 398.618 407.582 404.005C403.932 397.057 400.34 387.195 400.575 382.278L408.524 384.634Z" fill="black"/>
<path d="M389.653 327.535C387.887 335.778 386.032 350.91 391.714 356.533C387.151 360.949 381.189 365.983 371.356 366.175C361.523 366.366 363.363 359.58 365.998 356.106C375.272 354.045 375.154 347.274 373.638 340.753L389.653 327.535Z" fill="#FF8B7B"/>
<path opacity="0.2" d="M383.147 332.878L373.682 340.694C374.049 342.192 374.285 343.719 374.388 345.258C376.433 344.931 378.366 344.105 380.015 342.852C381.664 341.598 382.977 339.957 383.839 338.074C384.722 335.734 384.03 333.217 383.147 332.878Z" fill="black"/>
<path d="M368.721 303.894C361.993 316.259 357.841 329.86 356.518 343.874C356.227 345.69 356.292 347.544 356.71 349.335C356.937 350.229 357.396 351.048 358.039 351.709C358.682 352.37 359.488 352.851 360.375 353.103C360.036 352.789 359.772 352.403 359.602 351.973C359.431 351.543 359.359 351.081 359.39 350.62C359.421 350.158 359.555 349.71 359.781 349.307C360.008 348.904 360.321 348.556 360.699 348.29C360.407 350.509 360.958 352.758 362.244 354.59C362.859 355.319 363.626 355.904 364.49 356.306C365.354 356.707 366.296 356.916 367.249 356.916C366.913 356.075 366.836 355.152 367.028 354.266C368.383 356.136 371.106 357.21 373.02 355.871C376.228 353.707 376.287 348.923 376.964 345.11L383.971 305.366C383.182 304.422 382.196 303.66 381.083 303.133C379.969 302.607 378.755 302.33 377.524 302.319C375.029 302.352 372.551 302.739 370.164 303.468H370.708" fill="#263238"/>
<path d="M396.984 318.394C393.524 329.08 392.023 335.498 385.119 339.649C374.712 345.891 362.598 337.456 362.833 325.915C363.025 315.611 368.721 299.846 380.394 298.271C382.984 297.912 385.623 298.221 388.06 299.171C390.496 300.121 392.649 301.679 394.312 303.696C395.976 305.714 397.095 308.124 397.562 310.697C398.03 313.27 397.831 315.92 396.984 318.394Z" fill="#FF8B7B"/>
<path d="M389.786 321.19C389.006 323.319 388.066 325.386 386.974 327.373C389.226 326.679 391.583 326.385 393.937 326.504C394.753 326.593 395.574 326.637 396.395 326.637C397.23 326.627 398.034 326.319 398.662 325.768C399.022 325.38 399.272 324.902 399.383 324.383C399.495 323.865 399.464 323.327 399.295 322.824C398.95 321.854 398.299 321.022 397.44 320.454C396.498 319.791 395.368 319.446 394.216 319.468C393.024 319.512 390.183 320.116 389.786 321.19Z" fill="#263238"/>
<path d="M397.852 329.728C396.93 330.597 395.846 331.276 394.661 331.725C393.476 332.175 392.215 332.386 390.948 332.348C387.548 332.23 386.886 328.963 388.696 326.298C390.315 323.899 394.04 321.087 397.013 322.5C397.646 322.836 398.188 323.32 398.592 323.911C398.996 324.502 399.25 325.182 399.333 325.894C399.415 326.605 399.324 327.326 399.066 327.994C398.808 328.662 398.391 329.257 397.852 329.728Z" fill="#FF8B7B"/>
<path d="M372.813 315.891C371.077 318.324 369.017 320.508 366.69 322.383C367.18 322.968 367.793 323.438 368.484 323.761C369.176 324.084 369.93 324.252 370.694 324.252L372.813 315.891Z" fill="#FF5652"/>
<path d="M371.459 328.609C372.473 328.741 373.502 328.666 374.486 328.391C375.47 328.115 376.388 327.644 377.185 327.005C377.234 326.953 377.261 326.885 377.261 326.813C377.261 326.742 377.234 326.674 377.185 326.622C377.161 326.596 377.131 326.576 377.098 326.562C377.065 326.548 377.03 326.54 376.994 326.54C376.958 326.54 376.923 326.548 376.89 326.562C376.857 326.576 376.827 326.596 376.803 326.622C375.909 327.32 374.864 327.797 373.751 328.015C372.638 328.232 371.49 328.184 370.399 327.873C370.331 327.859 370.26 327.871 370.2 327.906C370.141 327.942 370.096 327.998 370.076 328.065C370.057 328.135 370.067 328.209 370.103 328.273C370.138 328.336 370.197 328.383 370.267 328.403C370.664 328.477 371.062 328.55 371.459 328.609Z" fill="#263238"/>
<path d="M383.662 314.743C383.749 314.765 383.84 314.765 383.927 314.743C383.991 314.719 384.05 314.682 384.1 314.634C384.15 314.587 384.19 314.53 384.217 314.467C384.245 314.403 384.259 314.336 384.26 314.267C384.261 314.198 384.247 314.13 384.221 314.066C383.918 313.27 383.426 312.56 382.787 311.996C382.149 311.432 381.383 311.031 380.556 310.828C380.488 310.815 380.419 310.816 380.351 310.831C380.284 310.845 380.22 310.874 380.164 310.913C380.108 310.953 380.06 311.004 380.024 311.062C379.987 311.121 379.963 311.186 379.953 311.254C379.926 311.393 379.954 311.536 380.031 311.654C380.108 311.772 380.228 311.856 380.365 311.887C381.028 312.045 381.642 312.362 382.155 312.811C382.668 313.26 383.064 313.827 383.309 314.463C383.34 314.536 383.388 314.599 383.45 314.648C383.512 314.697 383.584 314.73 383.662 314.743Z" fill="#263238"/>
<path d="M366.351 310.062C366.439 310.069 366.528 310.055 366.609 310.021C366.691 309.988 366.764 309.937 366.822 309.871C367.246 309.348 367.786 308.931 368.4 308.655C369.013 308.379 369.683 308.251 370.355 308.281C370.424 308.291 370.494 308.288 370.562 308.27C370.629 308.252 370.692 308.221 370.747 308.179C370.802 308.136 370.848 308.083 370.882 308.022C370.916 307.961 370.937 307.894 370.944 307.825C370.965 307.686 370.931 307.545 370.848 307.432C370.765 307.319 370.641 307.243 370.502 307.221C369.664 307.174 368.826 307.327 368.058 307.668C367.291 308.008 366.615 308.526 366.086 309.179C366.037 309.228 365.998 309.287 365.971 309.351C365.944 309.415 365.931 309.485 365.931 309.554C365.931 309.624 365.944 309.693 365.971 309.757C365.998 309.822 366.037 309.88 366.086 309.93C366.159 309.999 366.252 310.046 366.351 310.062Z" fill="#263238"/>
<path d="M400.678 362.657C400.605 362.657 400.487 362.657 400.472 362.657C397.455 375.242 398.043 388.387 395.188 401.4C393.201 410.482 375.139 410.335 357.814 417.444L359.801 428.367C359.801 428.367 395.791 426.468 405.698 412.925C411.306 405.242 412.557 401.459 413.941 390.227C415.413 378.701 416.09 363.981 408.524 362.568L400.678 362.657Z" fill="#FF8B7B"/>
<path d="M343.079 432.282H352.559C352.996 432.301 353.432 432.216 353.83 432.034C354.228 431.852 354.577 431.577 354.849 431.234C355.12 430.891 355.306 430.488 355.392 430.058C355.477 429.629 355.46 429.185 355.341 428.764L350.071 403.99C349.838 403.016 349.294 402.144 348.521 401.506C347.748 400.869 346.789 400.501 345.788 400.458H336.308C335.87 400.441 335.434 400.529 335.036 400.713C334.638 400.897 334.29 401.172 334.018 401.517C333.747 401.861 333.561 402.265 333.476 402.694C333.39 403.124 333.407 403.568 333.526 403.99L338.796 428.764C339.029 429.737 339.573 430.607 340.347 431.242C341.12 431.877 342.079 432.243 343.079 432.282Z" fill="#7164BF"/>
<path opacity="0.3" d="M343.079 432.282H352.559C352.996 432.301 353.432 432.216 353.83 432.034C354.228 431.852 354.577 431.577 354.849 431.234C355.12 430.891 355.306 430.488 355.392 430.058C355.477 429.629 355.46 429.185 355.341 428.764L350.071 403.99C349.838 403.016 349.294 402.144 348.521 401.506C347.748 400.869 346.789 400.501 345.788 400.458H336.308C335.87 400.441 335.434 400.529 335.036 400.713C334.638 400.897 334.29 401.172 334.018 401.517C333.747 401.861 333.561 402.265 333.476 402.694C333.39 403.124 333.407 403.568 333.526 403.99L338.796 428.764C339.029 429.737 339.573 430.607 340.347 431.242C341.12 431.877 342.079 432.243 343.079 432.282Z" fill="white"/>
<path d="M341.681 432.282H351.16C351.598 432.301 352.033 432.216 352.431 432.034C352.829 431.852 353.179 431.577 353.45 431.234C353.722 430.891 353.908 430.488 353.993 430.058C354.079 429.629 354.061 429.185 353.942 428.764L348.673 403.99C348.442 403.015 347.899 402.141 347.125 401.503C346.352 400.866 345.391 400.498 344.389 400.458H334.924C334.485 400.438 334.048 400.523 333.648 400.706C333.249 400.889 332.898 401.165 332.626 401.51C332.355 401.855 332.169 402.26 332.085 402.692C332 403.123 332.02 403.568 332.142 403.99L337.397 428.764C337.633 429.736 338.178 430.605 338.951 431.239C339.723 431.874 340.681 432.24 341.681 432.282Z" fill="#7164BF"/>
<path opacity="0.6" d="M341.681 432.282H351.16C351.598 432.301 352.033 432.216 352.431 432.034C352.829 431.852 353.179 431.577 353.45 431.234C353.722 430.891 353.908 430.488 353.993 430.058C354.079 429.629 354.061 429.185 353.942 428.764L348.673 403.99C348.442 403.015 347.899 402.141 347.125 401.503C346.352 400.866 345.391 400.498 344.389 400.458H334.924C334.485 400.438 334.048 400.523 333.648 400.706C333.249 400.889 332.898 401.165 332.626 401.51C332.355 401.855 332.169 402.26 332.085 402.692C332 403.123 332.02 403.568 332.142 403.99L337.397 428.764C337.633 429.736 338.178 430.605 338.951 431.239C339.723 431.874 340.681 432.24 341.681 432.282Z" fill="white"/>
<path d="M345.449 407.744H344.522C343.838 407.73 343.178 407.49 342.645 407.061C342.113 406.632 341.737 406.039 341.578 405.374L341.386 404.447C341.304 404.163 341.29 403.864 341.347 403.574C341.403 403.285 341.528 403.012 341.711 402.781C341.894 402.549 342.13 402.364 342.398 402.242C342.667 402.119 342.961 402.063 343.256 402.077H344.168C344.839 402.106 345.482 402.354 346 402.781C346.518 403.209 346.883 403.793 347.039 404.447L347.245 405.374C347.325 405.651 347.339 405.944 347.287 406.228C347.234 406.512 347.116 406.779 346.941 407.009C346.767 407.24 346.541 407.426 346.282 407.553C346.023 407.681 345.738 407.746 345.449 407.744Z" fill="#7164BF"/>
<path d="M343.167 403.534C343.231 403.806 343.382 404.05 343.598 404.228C343.813 404.406 344.081 404.508 344.36 404.52C344.482 404.526 344.603 404.501 344.714 404.45C344.825 404.399 344.922 404.321 344.997 404.225C345.072 404.128 345.123 404.015 345.145 403.895C345.167 403.775 345.161 403.651 345.125 403.534C345.061 403.266 344.912 403.026 344.699 402.851C344.487 402.675 344.223 402.574 343.948 402.563C343.826 402.556 343.704 402.578 343.593 402.627C343.482 402.677 343.384 402.752 343.307 402.847C343.231 402.943 343.179 403.054 343.154 403.174C343.13 403.293 343.134 403.417 343.167 403.534Z" fill="#263238"/>
<path d="M343.771 406.375C343.835 406.645 343.987 406.887 344.203 407.063C344.418 407.238 344.685 407.338 344.963 407.347C345.085 407.354 345.206 407.333 345.317 407.283C345.429 407.233 345.526 407.158 345.601 407.062C345.677 406.966 345.728 406.854 345.75 406.734C345.772 406.615 345.765 406.491 345.729 406.375C345.665 406.103 345.514 405.859 345.298 405.681C345.083 405.503 344.815 405.401 344.536 405.389C344.414 405.384 344.293 405.408 344.182 405.459C344.071 405.51 343.974 405.588 343.899 405.684C343.824 405.781 343.773 405.894 343.751 406.014C343.729 406.134 343.736 406.258 343.771 406.375Z" fill="#263238"/>
<path d="M343.138 426.968C344.095 427.793 356.18 428.926 359.801 428.44C360.905 425.173 359.933 421.861 359.389 418.46C357.328 416.9 354.973 415.708 352.927 414.162C349.512 411.586 344.581 412.793 340.341 412.145C339.399 413.411 339.119 416.488 339.237 419.167C339.32 420.665 339.709 422.13 340.38 423.471C341.051 424.813 341.989 426.003 343.138 426.968Z" fill="#FF8B7B"/>
<path d="M394.702 363.084C394.467 377.45 395.247 377.715 393.009 391.905L417.297 390.051C417.297 390.051 419.873 379.747 417.106 370.915C415.06 364.394 411.409 358.565 403.564 356.975C399.913 356.224 394.776 358.653 394.702 363.084Z" fill="#7164BF"/>
<path opacity="0.1" d="M394.702 363.084C394.467 377.45 395.247 377.715 393.009 391.905L417.297 390.051C417.297 390.051 419.873 379.747 417.106 370.915C415.06 364.394 411.409 358.565 403.564 356.975C399.913 356.224 394.776 358.653 394.702 363.084Z" fill="white"/>
<path d="M406.552 330.022C406.444 330.289 406.265 330.521 406.034 330.693C405.802 330.864 405.528 330.969 405.242 330.994C404.833 330.994 404.424 330.964 404.02 330.906C402.415 330.729 399.81 330.317 399.398 330.199C397.278 325.783 398.382 322.088 395.188 318.423C396.218 318.909 397.234 319.306 398.235 319.704C399.236 320.101 400.207 320.469 401.179 320.955C402.739 323.251 404.712 325.96 406.081 328.315C406.274 328.551 406.415 328.825 406.496 329.119C406.577 329.413 406.596 329.721 406.552 330.022Z" fill="#263238"/>
<path d="M389.064 306.176C389.519 309.085 389.404 312.055 388.726 314.92C387.153 314.261 385.748 313.258 384.614 311.984C383.48 310.711 382.647 309.198 382.175 307.56C381.946 308.985 382.167 310.447 382.808 311.74C381.592 311.309 380.507 310.574 379.654 309.605C378.801 308.637 378.21 307.466 377.936 306.205C377.533 307.414 377.533 308.721 377.936 309.93C376.793 309.746 375.729 309.228 374.878 308.443C374.027 307.657 373.427 306.639 373.152 305.514C372.876 305.912 372.69 306.366 372.606 306.844C372.522 307.322 372.543 307.812 372.666 308.281C371.83 307.816 371.158 307.102 370.744 306.239C370.33 305.375 370.195 304.405 370.357 303.461C370.518 302.518 370.969 301.647 371.646 300.971C372.324 300.294 373.194 299.845 374.138 299.684C376.947 299.148 379.854 299.551 382.411 300.833C384.868 302.294 387.107 304.093 389.064 306.176Z" fill="#263238"/>
<path opacity="0.2" d="M407.391 330.493C407.285 330.768 407.102 331.007 406.865 331.182C406.628 331.357 406.345 331.46 406.051 331.48C405.637 331.48 405.224 331.45 404.815 331.391C403.166 331.2 400.502 330.788 400.09 330.67C397.911 326.254 399.044 322.368 395.777 318.6C396.836 319.1 397.867 319.498 398.897 319.91C399.928 320.322 400.914 320.69 401.959 321.19C403.534 323.546 405.565 326.313 406.964 328.756C407.152 329 407.288 329.281 407.361 329.58C407.435 329.879 407.445 330.19 407.391 330.493Z" fill="black"/>
<path d="M407.391 330.493C407.285 330.768 407.102 331.007 406.865 331.182C406.628 331.357 406.345 331.46 406.051 331.48C405.637 331.48 405.224 331.45 404.815 331.391C402.695 327.947 400.458 324.591 398.102 321.323C398.353 320.808 398.632 320.351 398.897 319.851C399.898 320.248 400.914 320.631 401.959 321.132C403.534 323.487 405.565 326.254 406.964 328.698C407.16 328.948 407.3 329.239 407.374 329.549C407.448 329.859 407.453 330.181 407.391 330.493Z" fill="#7164BF"/>
<path d="M401.856 320.749C401.856 320.749 400.193 324.488 400.193 324.591C400.016 324.311 399.81 324.017 399.604 323.722C395.866 318.544 391.815 313.599 387.475 308.914C382.337 304.763 376.125 301.024 368.235 304.91C369.222 302.143 377.73 281.682 396.439 296.976C399.805 299.675 402.428 303.185 404.064 307.177C404.853 309.444 405.065 311.873 404.679 314.243C404.293 316.612 403.323 318.848 401.856 320.749Z" fill="#7164BF"/>
<path d="M383.795 303.232C384.06 302.753 384.176 302.206 384.129 301.661C384.082 301.115 383.873 300.596 383.53 300.17C382.817 299.33 381.842 298.754 380.762 298.536C379.711 298.232 378.59 298.279 377.568 298.669C377.059 298.869 376.614 299.204 376.28 299.636C375.946 300.069 375.735 300.584 375.669 301.127C378.509 301.004 381.305 301.862 383.589 303.556L383.795 303.232Z" fill="#263238"/>
<path d="M379.776 317.187C379.511 318.055 378.893 318.659 378.304 318.511C377.715 318.364 377.45 317.525 377.671 316.642C377.892 315.759 378.554 315.17 379.143 315.302C379.732 315.435 379.982 316.303 379.776 317.187Z" fill="#263238"/>
<path d="M379.069 315.685C379.069 315.685 379.069 315.877 378.952 315.891C378.905 315.892 378.859 315.884 378.816 315.866C378.773 315.848 378.734 315.822 378.701 315.788C378.259 315.437 377.91 314.982 377.686 314.463C378.133 314.828 378.628 315.13 379.158 315.361L379.069 315.685Z" fill="#263238"/>
<path d="M369.766 314.596C369.501 315.479 368.898 316.068 368.294 315.921C367.691 315.773 367.426 314.934 367.661 314.051C367.897 313.168 368.53 312.579 369.133 312.741C369.737 312.903 370.002 313.713 369.766 314.596Z" fill="#263238"/>
<path d="M368.927 313.124C369.001 313.197 368.927 313.33 368.824 313.33C368.775 313.332 368.727 313.324 368.681 313.306C368.635 313.289 368.594 313.261 368.559 313.227C368.117 312.875 367.768 312.42 367.544 311.902C367.997 312.263 368.491 312.57 369.016 312.815L368.927 313.124Z" fill="#263238"/>
<path d="M392.111 322.442C391.608 321.555 390.934 320.778 390.128 320.154C389.322 319.53 388.4 319.071 387.416 318.806L383 317.599C383.259 316.386 383.052 315.12 382.42 314.053C381.787 312.986 380.776 312.197 379.588 311.842C378.399 311.487 377.121 311.594 376.007 312.139C374.894 312.685 374.027 313.631 373.579 314.787C373.279 314.565 372.905 314.465 372.534 314.507C372.697 313.265 372.373 312.008 371.628 310.999C370.884 309.991 369.778 309.311 368.543 309.101C367.307 308.891 366.038 309.169 365.003 309.875C363.968 310.581 363.247 311.661 362.991 312.888C362.736 314.115 362.966 315.393 363.633 316.454C364.3 317.515 365.352 318.276 366.568 318.577C367.785 318.878 369.071 318.696 370.156 318.069C371.241 317.442 372.04 316.418 372.387 315.214C372.554 315.136 372.743 315.12 372.921 315.169C373.099 315.217 373.254 315.327 373.358 315.479C372.997 316.736 373.15 318.085 373.784 319.229C374.417 320.374 375.479 321.219 376.736 321.58C377.993 321.942 379.343 321.789 380.487 321.155C381.631 320.521 382.477 319.459 382.838 318.202L387.254 319.424C389.075 319.919 390.625 321.115 391.567 322.751L392.597 324.576L393.157 324.267L392.111 322.442ZM366.528 317.952C365.706 317.727 364.968 317.264 364.409 316.62C363.85 315.977 363.494 315.182 363.386 314.336C363.278 313.49 363.424 312.631 363.804 311.868C364.184 311.105 364.782 310.471 365.522 310.048C366.262 309.625 367.111 309.43 367.962 309.489C368.813 309.548 369.627 309.857 370.302 310.379C370.976 310.9 371.481 311.61 371.753 312.418C372.024 313.226 372.05 314.097 371.827 314.92C371.679 315.467 371.424 315.98 371.077 316.428C370.731 316.877 370.299 317.253 369.807 317.535C369.314 317.816 368.771 317.998 368.209 318.07C367.646 318.141 367.075 318.101 366.528 317.952ZM377.038 320.822C376.211 320.599 375.468 320.136 374.905 319.491C374.341 318.845 373.982 318.047 373.872 317.197C373.762 316.347 373.908 315.484 374.289 314.717C374.671 313.95 375.271 313.313 376.015 312.888C376.759 312.462 377.612 312.267 378.467 312.327C379.321 312.386 380.139 312.699 380.816 313.224C381.493 313.749 381.999 314.463 382.27 315.276C382.541 316.089 382.564 316.964 382.337 317.79C382.184 318.337 381.925 318.848 381.574 319.294C381.224 319.74 380.788 320.113 380.293 320.39C379.798 320.668 379.253 320.845 378.69 320.912C378.126 320.978 377.555 320.933 377.009 320.778L377.038 320.822Z" fill="#263238"/>
<path d="M400.251 340.326C400.251 344.58 399.942 349.011 397.705 352.603C394.334 357.946 387.401 359.963 381.115 359.801C382.086 359.697 383.007 359.316 383.767 358.702C384.526 358.089 385.093 357.269 385.399 356.342C383.669 356.964 381.803 357.111 379.997 356.769C380.645 356.568 381.239 356.221 381.732 355.754C382.225 355.287 382.603 354.712 382.838 354.075C383.292 352.796 383.551 351.456 383.603 350.1C384.766 336.381 386.017 322.353 387.18 308.634C388.736 309.939 390.17 311.382 391.464 312.947C394.219 316.072 396.757 319.382 399.059 322.854C399.089 323.001 400.266 334.806 400.251 340.326Z" fill="#263238"/>
<path d="M273.085 124.31H244.573C235.606 124.31 228.337 131.58 228.337 140.547V169.059C228.337 178.026 235.606 185.295 244.573 185.295H273.085C282.052 185.295 289.322 178.026 289.322 169.059V140.547C289.322 131.58 282.052 124.31 273.085 124.31Z" fill="#7164BF"/>
<path d="M261.913 168.647C261.943 169.09 261.881 169.534 261.733 169.952C261.584 170.37 261.351 170.753 261.048 171.077C260.745 171.401 260.378 171.659 259.971 171.836C259.564 172.012 259.126 172.104 258.682 172.104C258.238 172.104 257.799 172.012 257.392 171.836C256.985 171.659 256.619 171.401 256.316 171.077C256.013 170.753 255.78 170.37 255.631 169.952C255.482 169.534 255.421 169.09 255.451 168.647V168.338H261.898C261.91 168.44 261.915 168.544 261.913 168.647Z" fill="white"/>
<path d="M257.055 140.34C256.991 140.026 256.997 139.701 257.074 139.389C257.15 139.077 257.295 138.787 257.498 138.538C257.701 138.289 257.957 138.089 258.247 137.951C258.537 137.813 258.854 137.742 259.175 137.742C259.496 137.742 259.813 137.813 260.103 137.951C260.393 138.089 260.649 138.289 260.852 138.538C261.055 138.787 261.2 139.077 261.276 139.389C261.353 139.701 261.359 140.026 261.295 140.34C261.302 140.424 261.302 140.507 261.295 140.591H257.07L257.055 140.34Z" fill="white"/>
<path d="M272.099 167.19H245.603L247.473 162.42H247.576V151.469C247.54 149.138 248.243 146.857 249.584 144.95C250.924 143.044 252.834 141.611 255.039 140.856C257.625 140.14 260.357 140.14 262.943 140.856C264.402 141.442 265.732 142.307 266.859 143.402C268.974 145.526 270.164 148.398 270.171 151.395V162.347H270.289L272.099 167.19Z" fill="white"/>
<path d="M177.067 190.05H148.554C139.587 190.05 132.318 197.319 132.318 206.286V234.799C132.318 243.766 139.587 251.035 148.554 251.035H177.067C186.034 251.035 193.303 243.766 193.303 234.799V206.286C193.303 197.319 186.034 190.05 177.067 190.05Z" fill="#7164BF"/>
<path opacity="0.6" d="M177.067 190.05H148.554C139.587 190.05 132.318 197.319 132.318 206.286V234.799C132.318 243.766 139.587 251.035 148.554 251.035H177.067C186.034 251.035 193.303 243.766 193.303 234.799V206.286C193.303 197.319 186.034 190.05 177.067 190.05Z" fill="white"/>
<path fill-rule="evenodd" clip-rule="evenodd" d="M157.504 228.734C156.001 228.694 154.546 228.194 153.335 227.302C152.125 226.409 151.216 225.168 150.733 223.744C151.763 223.938 152.823 223.902 153.839 223.641H153.927C152.272 223.32 150.78 222.434 149.706 221.135C148.631 219.835 148.042 218.202 148.039 216.516C149.007 217.049 150.086 217.346 151.189 217.385C149.693 216.33 148.643 214.756 148.245 212.969C147.806 211.206 148.059 209.341 148.952 207.758C150.792 209.974 153.071 211.786 155.644 213.08C158.218 214.375 161.031 215.124 163.907 215.28C163.893 215.011 163.849 214.744 163.775 214.485C163.545 212.846 163.9 211.179 164.776 209.775C165.297 208.919 166.001 208.189 166.839 207.64C167.677 207.09 168.626 206.733 169.619 206.595C170.75 206.394 171.914 206.471 173.009 206.819C174.104 207.168 175.097 207.778 175.904 208.597C175.947 208.655 176.007 208.697 176.076 208.719C176.145 208.74 176.219 208.738 176.287 208.715C177.753 208.41 179.16 207.868 180.452 207.11H180.556C180.048 208.645 179.043 209.966 177.7 210.864C179.077 210.706 180.422 210.339 181.689 209.775C181.424 210.143 181.159 210.511 180.879 210.864C180.133 211.802 179.267 212.638 178.303 213.352C178.261 213.37 178.225 213.401 178.202 213.441C178.178 213.48 178.167 213.526 178.171 213.572C178.205 214.64 178.151 215.708 178.009 216.767C177.766 218.977 177.17 221.134 176.243 223.155C175.298 225.252 174.004 227.173 172.415 228.837C169.759 231.628 166.321 233.552 162.553 234.357C161.23 234.635 159.885 234.797 158.534 234.843C154.461 234.963 150.443 233.883 146.979 231.737L146.788 231.634C149.238 231.91 151.718 231.565 154.001 230.633C155.254 230.173 156.434 229.533 157.504 228.734Z" fill="#7164BF"/>
<path d="M205.565 388.858H177.052C168.085 388.858 160.816 396.127 160.816 405.094V433.607C160.816 442.574 168.085 449.843 177.052 449.843H205.565C214.532 449.843 221.801 442.574 221.801 433.607V405.094C221.801 396.127 214.532 388.858 205.565 388.858Z" fill="#7164BF"/>
<path d="M204.152 409.613V436.684C204.154 436.766 204.139 436.848 204.109 436.925C204.079 437.001 204.033 437.071 203.976 437.13C203.918 437.189 203.849 437.236 203.773 437.268C203.697 437.3 203.616 437.317 203.533 437.316H178.509C178.342 437.316 178.181 437.25 178.062 437.131C177.943 437.012 177.876 436.851 177.876 436.684V401.473C177.876 401.305 177.943 401.144 178.062 401.026C178.181 400.907 178.342 400.84 178.509 400.84H195.364L204.152 409.613Z" fill="#7164BF"/>
<g opacity="0.7">
<path d="M204.152 409.613V436.684C204.154 436.766 204.139 436.848 204.109 436.925C204.079 437.001 204.033 437.071 203.976 437.13C203.918 437.189 203.849 437.236 203.773 437.268C203.697 437.3 203.616 437.317 203.533 437.316H178.509C178.342 437.316 178.181 437.25 178.062 437.131C177.943 437.012 177.876 436.851 177.876 436.684V401.473C177.876 401.305 177.943 401.144 178.062 401.026C178.181 400.907 178.342 400.84 178.509 400.84H195.364L204.152 409.613Z" fill="white"/>
</g>
<path d="M195.349 400.84V408.995C195.349 409.163 195.416 409.324 195.534 409.443C195.653 409.561 195.814 409.628 195.982 409.628H204.122L195.349 400.84Z" fill="#7164BF"/>
<path d="M195.349 400.84V408.995C195.349 409.163 195.416 409.324 195.534 409.443C195.653 409.561 195.814 409.628 195.982 409.628H204.122L195.349 400.84Z" fill="white"/>
<path d="M201.185 414.44L181.004 414.539C180.687 414.54 180.431 414.798 180.433 415.115L180.434 415.292C180.435 415.609 180.693 415.865 181.01 415.863L201.191 415.765C201.508 415.763 201.764 415.505 201.763 415.188L201.762 415.011C201.76 414.694 201.502 414.438 201.185 414.44Z" fill="#7164BF"/>
<path d="M201.211 419.871L181.03 419.97C180.713 419.972 180.458 420.23 180.459 420.547L180.46 420.724C180.462 421.041 180.72 421.296 181.037 421.295L201.218 421.196C201.535 421.195 201.791 420.936 201.789 420.619L201.788 420.443C201.787 420.126 201.528 419.87 201.211 419.871Z" fill="#7164BF"/>
<path d="M201.223 425.303L181.042 425.402C180.725 425.403 180.47 425.661 180.471 425.978L180.472 426.155C180.473 426.472 180.732 426.728 181.049 426.726L201.23 426.628C201.547 426.626 201.803 426.368 201.801 426.051L201.8 425.874C201.799 425.557 201.54 425.301 201.223 425.303Z" fill="#7164BF"/>
<path d="M190.786 430.751L181.012 430.854C180.937 430.854 180.863 430.869 180.794 430.898C180.725 430.927 180.663 430.97 180.611 431.023C180.559 431.077 180.518 431.14 180.491 431.21C180.464 431.279 180.45 431.354 180.452 431.428V431.605C180.452 431.757 180.513 431.903 180.621 432.011C180.728 432.119 180.874 432.179 181.027 432.179L190.786 432.076C190.938 432.076 191.084 432.016 191.192 431.908C191.3 431.8 191.36 431.654 191.36 431.502V431.296C191.349 431.15 191.284 431.014 191.178 430.913C191.072 430.812 190.932 430.755 190.786 430.751Z" fill="#7164BF"/>
<path d="M263.267 279.121H234.755C225.788 279.121 218.518 286.39 218.518 295.357V323.87C218.518 332.836 225.788 340.106 234.755 340.106H263.267C272.234 340.106 279.503 332.836 279.503 323.87V295.357C279.503 286.39 272.234 279.121 263.267 279.121Z" fill="#7164BF"/>
<path opacity="0.6" d="M263.267 279.121H234.755C225.788 279.121 218.518 286.39 218.518 295.357V323.87C218.518 332.836 225.788 340.106 234.755 340.106H263.267C272.234 340.106 279.503 332.836 279.503 323.87V295.357C279.503 286.39 272.234 279.121 263.267 279.121Z" fill="white"/>
<path d="M259.852 287.717H238.641C236.763 287.717 235.24 289.24 235.24 291.117V327.108C235.24 328.986 236.763 330.508 238.641 330.508H259.852C261.73 330.508 263.253 328.986 263.253 327.108V291.117C263.253 289.24 261.73 287.717 259.852 287.717Z" fill="white"/>
<path d="M258.689 322.78L255.995 323.266L256.658 320.616L270.524 307.648C270.666 307.515 270.832 307.411 271.014 307.342C271.196 307.274 271.39 307.242 271.585 307.249C271.779 307.256 271.97 307.301 272.147 307.382C272.324 307.463 272.482 307.579 272.614 307.722C272.752 307.858 272.862 308.021 272.937 308.201C273.011 308.38 273.05 308.572 273.05 308.767C273.05 308.961 273.011 309.153 272.937 309.333C272.862 309.512 272.752 309.675 272.614 309.812L258.689 322.78Z" fill="#7164BF"/>
<path d="M246.884 325.96C246.634 325.966 246.386 325.923 246.153 325.832C245.92 325.741 245.708 325.604 245.53 325.43C245.172 324.991 244.977 324.443 244.977 323.877C244.977 323.311 245.172 322.762 245.53 322.324C246.269 321.103 247.276 320.067 248.474 319.292C249.08 318.875 249.759 318.575 250.476 318.408C250.36 318.165 250.189 317.953 249.975 317.79C248.886 316.951 247.164 317.658 246.001 318.526C243.991 320.052 242.459 322.12 241.585 324.488C241.512 324.67 241.372 324.817 241.194 324.899C241.016 324.982 240.814 324.992 240.628 324.929C240.537 324.895 240.453 324.843 240.382 324.776C240.311 324.709 240.254 324.629 240.214 324.54C240.175 324.451 240.153 324.355 240.151 324.258C240.148 324.16 240.165 324.063 240.201 323.972C241.194 321.332 242.92 319.029 245.176 317.334C246.81 316.127 249.18 315.288 250.902 316.612C251.483 317.064 251.897 317.696 252.08 318.408C252.717 318.526 253.295 318.86 253.716 319.353C254.136 319.846 254.375 320.469 254.391 321.117C254.348 321.694 254.171 322.253 253.876 322.751C253.876 322.883 253.743 323.016 253.684 323.148C253.594 323.297 253.539 323.465 253.523 323.638C253.508 323.812 253.533 323.987 253.596 324.149C253.712 324.226 253.847 324.267 253.986 324.267C254.125 324.267 254.261 324.226 254.376 324.149C254.783 323.835 255.119 323.439 255.363 322.986C255.468 322.823 255.633 322.707 255.823 322.663C256.012 322.619 256.211 322.651 256.378 322.751C256.542 322.856 256.657 323.023 256.699 323.213C256.74 323.403 256.704 323.602 256.599 323.766C256.247 324.426 255.743 324.991 255.127 325.415C254.719 325.68 254.23 325.795 253.747 325.738C253.263 325.682 252.814 325.458 252.477 325.106C252.213 324.739 252.06 324.304 252.037 323.852C252.013 323.401 252.12 322.952 252.345 322.559C252.345 322.412 252.477 322.265 252.551 322.118C252.746 321.803 252.876 321.453 252.934 321.087C252.919 320.861 252.843 320.642 252.713 320.455C252.583 320.269 252.405 320.121 252.198 320.028C252.154 320.446 252.055 320.857 251.903 321.249C251.271 322.595 250.352 323.786 249.21 324.738C248.799 325.195 248.298 325.561 247.738 325.812C247.464 325.911 247.175 325.96 246.884 325.96ZM250.74 319.88C250.215 320.008 249.717 320.227 249.268 320.528C248.247 321.181 247.386 322.057 246.751 323.089C246.472 323.56 246.28 324.164 246.501 324.385C246.604 324.438 246.717 324.465 246.832 324.465C246.948 324.465 247.061 324.438 247.164 324.385C247.535 324.189 247.868 323.93 248.15 323.619C249.125 322.81 249.922 321.808 250.49 320.675C250.611 320.423 250.695 320.156 250.74 319.88Z" fill="#7164BF"/>
<path d="M259.324 293.1L239.143 293.198C238.826 293.2 238.57 293.458 238.572 293.775L238.573 293.952C238.574 294.269 238.832 294.525 239.15 294.523L259.33 294.425C259.647 294.423 259.903 294.165 259.902 293.848L259.901 293.671C259.899 293.354 259.641 293.098 259.324 293.1Z" fill="#7164BF"/>
<path d="M259.351 298.531L239.17 298.63C238.853 298.632 238.597 298.89 238.598 299.207L238.599 299.384C238.601 299.701 238.859 299.956 239.176 299.955L259.357 299.856C259.674 299.855 259.93 299.596 259.928 299.279L259.927 299.103C259.926 298.786 259.668 298.53 259.351 298.531Z" fill="#7164BF"/>
<path d="M259.377 303.963L239.196 304.061C238.879 304.063 238.623 304.321 238.625 304.638L238.626 304.815C238.627 305.132 238.886 305.388 239.203 305.386L259.384 305.288C259.701 305.286 259.956 305.028 259.955 304.711L259.954 304.534C259.952 304.217 259.694 303.961 259.377 303.963Z" fill="#7164BF"/>
<path d="M248.945 309.414L239.171 309.517C239.096 309.517 239.022 309.532 238.953 309.561C238.884 309.59 238.822 309.633 238.77 309.686C238.718 309.74 238.677 309.803 238.649 309.873C238.622 309.943 238.609 310.017 238.611 310.092V310.268C238.611 310.42 238.672 310.566 238.779 310.674C238.887 310.782 239.033 310.842 239.185 310.842L248.945 310.739C249.019 310.739 249.093 310.724 249.162 310.695C249.231 310.666 249.293 310.624 249.345 310.57C249.398 310.517 249.438 310.453 249.466 310.384C249.493 310.314 249.506 310.24 249.504 310.165V309.988C249.506 309.914 249.493 309.839 249.466 309.77C249.438 309.7 249.398 309.637 249.345 309.583C249.293 309.53 249.231 309.487 249.162 309.458C249.093 309.429 249.019 309.414 248.945 309.414Z" fill="#7164BF"/>
<path d="M481.153 95.6947H452.64C443.673 95.6947 436.404 102.964 436.404 111.931V140.444C436.404 149.411 443.673 156.68 452.64 156.68H481.153C490.12 156.68 497.389 149.411 497.389 140.444V111.931C497.389 102.964 490.12 95.6947 481.153 95.6947Z" fill="#7164BF"/>
<path opacity="0.6" d="M481.153 95.6947H452.64C443.673 95.6947 436.404 102.964 436.404 111.931V140.444C436.404 149.411 443.673 156.68 452.64 156.68H481.153C490.12 156.68 497.389 149.411 497.389 140.444V111.931C497.389 102.964 490.12 95.6947 481.153 95.6947Z" fill="white"/>
<path d="M467.124 104.924C465.286 104.924 463.466 105.286 461.767 105.99C460.069 106.693 458.526 107.724 457.226 109.024C455.926 110.324 454.895 111.867 454.191 113.566C453.488 115.264 453.126 117.085 453.126 118.923C453.126 126.666 467.124 146.361 467.124 146.361C467.124 146.361 481.123 126.666 481.123 118.923C481.123 117.085 480.761 115.264 480.058 113.566C479.354 111.867 478.323 110.324 477.023 109.024C475.723 107.724 474.18 106.693 472.482 105.99C470.783 105.286 468.963 104.924 467.124 104.924ZM467.242 125.65C465.933 125.647 464.654 125.256 463.566 124.526C462.479 123.797 461.632 122.761 461.133 121.551C460.634 120.34 460.505 119.009 460.762 117.725C461.019 116.441 461.651 115.262 462.578 114.337C463.505 113.412 464.686 112.783 465.97 112.528C467.255 112.274 468.586 112.406 469.795 112.908C471.005 113.409 472.038 114.258 472.766 115.347C473.493 116.436 473.881 117.716 473.881 119.026C473.881 119.897 473.709 120.76 473.375 121.564C473.042 122.369 472.552 123.1 471.936 123.715C471.319 124.33 470.587 124.818 469.782 125.15C468.976 125.482 468.113 125.652 467.242 125.65Z" fill="#7164BF"/>
<path d="M578.702 161.287H550.219C541.268 161.287 534.012 168.543 534.012 177.494V205.977C534.012 214.928 541.268 222.184 550.219 222.184H578.702C587.653 222.184 594.909 214.928 594.909 205.977V177.494C594.909 168.543 587.653 161.287 578.702 161.287Z" fill="#7164BF"/>
<path d="M578.702 161.287H550.219C541.268 161.287 534.012 168.543 534.012 177.494V205.977C534.012 214.928 541.268 222.184 550.219 222.184H578.702C587.653 222.184 594.909 214.928 594.909 205.977V177.494C594.909 168.543 587.653 161.287 578.702 161.287Z" fill="#7164BF"/>
<path d="M571.283 182.042V190.624C571.283 192.33 570.605 193.966 569.399 195.173C568.193 196.379 566.557 197.057 564.851 197.057H556.666L547.319 206.404V197.057C545.613 197.057 543.977 196.379 542.77 195.173C541.564 193.966 540.886 192.33 540.886 190.624V182.042C540.89 180.339 541.57 178.706 542.776 177.503C543.982 176.3 545.615 175.624 547.319 175.624H564.851C565.695 175.622 566.531 175.787 567.311 176.109C568.091 176.43 568.801 176.903 569.398 177.499C569.996 178.095 570.47 178.803 570.793 179.583C571.117 180.362 571.283 181.198 571.283 182.042Z" fill="white"/>
<path d="M546.583 208.185V197.748C544.834 197.546 543.22 196.709 542.048 195.396C540.876 194.083 540.227 192.384 540.224 190.624V182.042C540.228 180.144 540.985 178.324 542.329 176.983C543.673 175.642 545.494 174.888 547.393 174.888H564.924C566.823 174.888 568.644 175.642 569.988 176.983C571.332 178.324 572.089 180.144 572.093 182.042V190.624C572.089 192.524 571.332 194.345 569.989 195.689C568.645 197.032 566.824 197.789 564.924 197.793H557.049L546.583 208.185ZM547.319 176.36C545.811 176.36 544.364 176.958 543.296 178.024C542.228 179.089 541.626 180.534 541.622 182.042V190.624C541.626 192.134 542.228 193.58 543.295 194.648C544.363 195.715 545.809 196.317 547.319 196.321H548.055V204.608L556.372 196.306H564.851C566.361 196.306 567.81 195.706 568.879 194.637C569.947 193.569 570.547 192.12 570.547 190.609V182.028C570.547 181.28 570.4 180.54 570.113 179.85C569.827 179.159 569.407 178.532 568.878 178.005C568.349 177.477 567.721 177.059 567.029 176.774C566.338 176.489 565.598 176.344 564.851 176.346L547.319 176.36Z" fill="#7164BF"/>
<path d="M588.049 194.981V201.576C588.049 202.887 587.528 204.145 586.601 205.073C585.673 206.001 584.415 206.522 583.103 206.522V213.72L575.905 206.522H569.664C568.352 206.522 567.094 206.001 566.167 205.073C565.239 204.145 564.718 202.887 564.718 201.576V194.981C564.722 193.671 565.244 192.415 566.171 191.488C567.098 190.561 568.353 190.039 569.664 190.035H583.162C584.462 190.054 585.703 190.584 586.617 191.509C587.531 192.434 588.045 193.681 588.049 194.981Z" fill="white"/>
<path d="M583.839 215.501L575.596 207.258H569.664C568.157 207.258 566.712 206.659 565.646 205.593C564.581 204.528 563.982 203.083 563.982 201.576V194.981C563.982 193.474 564.581 192.029 565.646 190.963C566.712 189.898 568.157 189.299 569.664 189.299H583.162C584.669 189.299 586.114 189.898 587.18 190.963C588.245 192.029 588.844 193.474 588.844 194.981V201.576C588.842 202.955 588.339 204.287 587.43 205.323C586.52 206.36 585.265 207.032 583.898 207.213L583.839 215.501ZM569.664 190.771C568.547 190.771 567.477 191.215 566.687 192.004C565.898 192.794 565.454 193.865 565.454 194.981V201.576C565.454 202.129 565.563 202.676 565.774 203.187C565.986 203.698 566.296 204.162 566.687 204.553C567.078 204.943 567.542 205.254 568.053 205.465C568.564 205.677 569.111 205.786 569.664 205.786H576.273L582.426 211.939V205.786H583.162C584.278 205.782 585.346 205.337 586.135 204.548C586.923 203.76 587.368 202.691 587.372 201.576V194.981C587.368 193.866 586.923 192.797 586.135 192.009C585.346 191.22 584.278 190.775 583.162 190.771H569.664Z" fill="#7164BF"/>
<path d="M564.483 182.528H548.614C548.419 182.528 548.232 182.45 548.094 182.312C547.956 182.174 547.878 181.987 547.878 181.792C547.878 181.597 547.956 181.41 548.094 181.272C548.232 181.134 548.419 181.056 548.614 181.056H564.483C564.678 181.056 564.865 181.134 565.003 181.272C565.141 181.41 565.219 181.597 565.219 181.792C565.219 181.987 565.141 182.174 565.003 182.312C564.865 182.45 564.678 182.528 564.483 182.528Z" fill="#7164BF"/>
<path d="M564.483 186.296H548.614C548.419 186.296 548.232 186.219 548.094 186.081C547.956 185.943 547.878 185.756 547.878 185.56C547.878 185.365 547.956 185.178 548.094 185.04C548.232 184.902 548.419 184.824 548.614 184.824H564.483C564.678 184.824 564.865 184.902 565.003 185.04C565.141 185.178 565.219 185.365 565.219 185.56C565.219 185.756 565.141 185.943 565.003 186.081C564.865 186.219 564.678 186.296 564.483 186.296Z" fill="#7164BF"/>
<path d="M560.081 189.991H548.614C548.419 189.991 548.232 189.913 548.094 189.775C547.956 189.637 547.878 189.45 547.878 189.255C547.878 189.06 547.956 188.873 548.094 188.735C548.232 188.597 548.419 188.519 548.614 188.519H560.081C560.275 188.523 560.46 188.602 560.598 188.739C560.735 188.876 560.814 189.061 560.817 189.255C560.817 189.45 560.74 189.637 560.602 189.775C560.464 189.913 560.276 189.991 560.081 189.991Z" fill="#7164BF"/>
<path d="M546.053 265.402H517.541C508.574 265.402 501.304 272.671 501.304 281.638V310.15C501.304 319.117 508.574 326.386 517.541 326.386H546.053C555.02 326.386 562.289 319.117 562.289 310.15V281.638C562.289 272.671 555.02 265.402 546.053 265.402Z" fill="#7164BF"/>
<path d="M554.944 299.92C554.944 300.582 554.944 302.864 554.812 303.526H508.223C508.223 303.203 508.223 301.201 508.223 300.862C508.222 298.259 509.191 295.749 510.941 293.822C512.691 291.895 515.097 290.689 517.688 290.44V289.984C517.699 287.062 518.752 284.239 520.658 282.024C522.564 279.808 525.198 278.346 528.086 277.899C530.974 277.452 533.927 278.049 536.414 279.585C538.9 281.12 540.758 283.492 541.652 286.275C542.382 286.296 543.111 286.369 543.83 286.495C546.962 287.078 549.789 288.741 551.82 291.194C553.851 293.647 554.956 296.735 554.944 299.92Z" fill="white"/>
<path d="M572.078 377.524H543.595C534.644 377.524 527.388 384.78 527.388 393.731V422.214C527.388 431.164 534.644 438.42 543.595 438.42H572.078C581.029 438.42 588.285 431.164 588.285 422.214V393.731C588.285 384.78 581.029 377.524 572.078 377.524Z" fill="#7164BF"/>
<g opacity="0.6">
<path d="M572.078 377.524H543.595C534.644 377.524 527.388 384.78 527.388 393.731V422.214C527.388 431.164 534.644 438.42 543.595 438.42H572.078C581.029 438.42 588.285 431.164 588.285 422.214V393.731C588.285 384.78 581.029 377.524 572.078 377.524Z" fill="white"/>
</g>
<path fill-rule="evenodd" clip-rule="evenodd" d="M576.376 401.841V419.358H539.297V401.694L557.461 413.529L576.376 401.841Z" fill="white"/>
<path fill-rule="evenodd" clip-rule="evenodd" d="M576.376 398.279V398.529L557.461 410.202L539.297 398.367V398.279H576.376Z" fill="white"/>
</svg>
